<?xml version="1.0" encoding="UTF-8" standalone="no"?>
<!-- Created with Inkscape (http://www.inkscape.org/) -->

<svg
   version="1.1"
   id="svg1"
   width="1190"
   height="545"
   viewBox="0 0 1190 545"
   sodipodi:docname="background_graphics.svg"
   inkscape:version="1.3 (0e150ed6c4, 2023-07-21)"
   xmlns:inkscape="http://www.inkscape.org/namespaces/inkscape"
   xmlns:sodipodi="http://sodipodi.sourceforge.net/DTD/sodipodi-0.dtd"
   xmlns:xlink="http://www.w3.org/1999/xlink"
   xmlns="http://www.w3.org/2000/svg"
   xmlns:svg="http://www.w3.org/2000/svg">
  <sodipodi:namedview
     id="namedview1"
     pagecolor="#ffffff"
     bordercolor="#000000"
     borderopacity="0.25"
     inkscape:showpageshadow="2"
     inkscape:pageopacity="0.0"
     inkscape:pagecheckerboard="0"
     inkscape:deskcolor="#d1d1d1"
     showgrid="false"
     inkscape:zoom="1.1462185"
     inkscape:cx="285.28592"
     inkscape:cy="295.31891"
     inkscape:window-width="3840"
     inkscape:window-height="2066"
     inkscape:window-x="2869"
     inkscape:window-y="-11"
     inkscape:window-maximized="1"
     inkscape:current-layer="g1" />
  <defs
     id="defs1">
    <linearGradient
       id="linearGradient5"
       inkscape:collect="always"
       inkscape:label="oval-shape">
      <stop
         style="stop-color:#ddc099;stop-opacity:1;"
         offset="0"
         id="stop7" />
      <stop
         style="stop-color:#f99253;stop-opacity:1;"
         offset="0.7796548"
         id="stop8" />
      <stop
         style="stop-color:#ed8e5e;stop-opacity:1;"
         offset="1"
         id="stop6" />
    </linearGradient>
    <linearGradient
       id="linearGradient1"
       inkscape:collect="always">
      <stop
         style="stop-color:#cc9fbb;stop-opacity:0.2;"
         offset="0"
         id="stop1" />
      <stop
         style="stop-color:#c0250a;stop-opacity:0.87843138;"
         offset="0.5"
         id="stop3" />
      <stop
         style="stop-color:#955070;stop-opacity:0.17189632;"
         offset="0.75"
         id="stop2" />
      <stop
         style="stop-color:#955070;stop-opacity:0.73333335;"
         offset="0.85000002"
         id="stop5" />
      <stop
         style="stop-color:#c0250a;stop-opacity:0.86666667;"
         offset="0.94999999"
         id="stop4" />
    </linearGradient>
    <clipPath
       clipPathUnits="userSpaceOnUse"
       id="clipPath1">
      <path
         style="fill:#000000"
         d="m 305.5,500.35526 c -12.30833,-0.94939 -20.96516,-2.7312 -24.3155,-5.0048 -1.94606,-1.32064 -4.62661,-2.6743 -5.95677,-3.00815 -1.33017,-0.33385 -3.38806,-1.4613 -4.57311,-2.50545 -7.56229,-6.66317 -10.48813,-9.61409 -11.58555,-11.68487 -2.12789,-4.01522 -2.98201,-22.75302 -1.32772,-29.12751 1.97824,-7.62275 7.83347,-18.44398 11.92235,-22.03407 3.18456,-2.79608 3.93976,-2.99184 11.6211,-3.01237 l 8.2152,-0.022 -4.12663,-1.87392 c -2.26965,-1.03065 -4.43993,-2.38083 -4.82285,-3.00041 -0.38292,-0.61958 -3.25093,-2.44998 -6.37337,-4.06755 -7.41463,-3.84115 -10.51135,-7.20936 -13.34994,-14.52032 -1.976,-5.08932 -2.32721,-7.81273 -2.32721,-18.04616 0,-11.90661 0.0452,-12.14379 3.7413,-19.62188 4.4624,-9.02854 15.50579,-20.94173 22.12833,-23.8712 8.98111,-3.97277 19.95,-4.10077 34.85356,-0.40672 2.11547,0.52435 3.44331,0.0691 5.95004,-2.04023 2.93118,-2.46642 3.81516,-2.67775 9.6477,-2.30636 8.19651,0.52192 9.17907,1.74037 9.17907,11.38281 0,5.11299 0.39041,7.3517 1.34601,7.71839 1.46612,0.56261 7.62689,12.91996 9.5983,19.25238 0.6755,2.1698 1.82198,5.29509 2.54775,6.94509 0.72576,1.65 1.8683,6.45414 2.53899,10.67588 1.03623,6.52268 0.9803,8.73476 -0.37225,14.72405 -1.96828,8.7158 -4.7622,14.33634 -8.38616,16.87045 -1.52495,1.06634 -6.93514,3.41582 -12.02264,5.22106 l -9.25,3.28225 v 4.80414 c 0,2.64227 0.45643,5.08623 1.01429,5.431 1.81401,1.12112 4.98571,8.33651 4.98571,11.34213 0,1.61185 0.89012,4.89227 1.97804,7.28984 1.45997,3.21749 1.98379,6.56241 2,12.77134 0.0191,7.32197 -0.32357,9.00671 -2.64426,13 -4.39791,7.56765 -7.42366,11.05622 -11.82812,13.63741 -4.2077,2.46588 -7.54346,2.76696 -20.00566,1.80571 z m -7.72525,-27.34161 c 1.25072,-0.0134 2.60233,-2.68355 3.82568,-7.55775 0.5862,-2.33564 0.39579,-2.4559 -3.88843,-2.4559 -3.9048,0 -4.9182,0.47081 -7.60841,3.5348 -1.70697,1.94413 -3.10359,3.72976 -3.10359,3.96806 0,1.12668 5.7284,3.41587 7.5,2.99715 1.1,-0.25999 2.57364,-0.47885 3.27475,-0.48636 z M 301,428 c 0,-0.55 -0.70156,-1 -1.55902,-1 -0.85746,0 -1.2809,0.45 -0.94098,1 0.33992,0.55 1.04148,1 1.55902,1 0.51754,0 0.94098,-0.45 0.94098,-1 z m 21.00262,-35.12235 c 6.51684,-5.23707 7.11527,-11.93201 1.57629,-17.63466 l -3.23073,-3.32621 -9.42409,1.14557 c -10.35566,1.25881 -13.69368,2.55797 -16.83579,6.55253 -3.00752,3.82344 -2.91659,11.35531 0.1617,13.39457 4.87651,3.23052 8.26251,3.97265 16.02178,3.51159 6.88365,-0.40902 8.2242,-0.82537 11.73084,-3.64339 z m 73.17941,41.6029 c -1.82489,-0.79264 -4.59435,-2.35002 -6.15437,-3.46086 C 387.46764,429.90886 385.26406,429 384.13081,429 c -1.13324,0 -2.54211,-0.9 -3.13081,-2 -0.5887,-1.1 -1.6185,-2 -2.28843,-2 C 377.26251,425 372,419.62622 372,418.14651 c 0,-0.5682 -0.92987,-1.68441 -2.06637,-2.48045 -2.4419,-1.71037 -4.47093,-9.09838 -5.34123,-19.44824 l -0.61235,-7.28218 4.7285,-5.05514 c 4.90229,-5.24095 8.89435,-7.86946 11.99179,-7.89581 5.86149,-0.0499 4.87917,-4.51774 -1.63958,-7.45729 -3.79111,-1.70955 -4.06039,-2.10328 -4.05518,-5.92927 0.0157,-11.53511 4.66957,-18.02641 17.42402,-24.30333 8.99438,-4.42646 9.14202,-4.46012 17.61602,-4.01654 16.69998,0.87419 23.07717,6.12886 28.78924,23.72174 8.05373,24.80509 11.84518,49.36157 10.1335,65.63265 -0.51306,4.87704 -0.94082,9.00337 -0.95059,9.16961 -0.01,0.16624 -2.3537,0.16624 -5.20872,0 -4.97009,-0.2894 -5.22803,-0.44608 -6.06237,-3.68261 l -0.87142,-3.38035 -5.58534,0.65644 c -4.15805,0.4887 -6.43652,1.4038 -8.91625,3.58103 -1.832,1.60852 -5.02803,3.19547 -7.10229,3.52656 -2.07426,0.33108 -5.65815,1.02828 -7.9642,1.54932 -5.49409,1.24137 -7.14556,1.15644 -11.12515,-0.5721 z M 686.5,434.79403 c -1.65,-0.57395 -4.14962,-2.11241 -5.55472,-3.41879 C 679.54019,430.06886 677.19352,429 675.73046,429 c -1.63664,0 -3.07191,-0.76949 -3.73046,-2 -0.5887,-1.1 -1.6185,-2 -2.28843,-2 C 668.26251,425 663,419.62622 663,418.14651 c 0,-0.5682 -0.92987,-1.68441 -2.06637,-2.48045 -2.4419,-1.71037 -4.47093,-9.09838 -5.34123,-19.44824 l -0.61235,-7.28218 4.7285,-5.05514 c 4.90229,-5.24095 8.89435,-7.86946 11.99179,-7.89581 5.86762,-0.0499 4.97077,-4.10418 -1.65007,-7.45922 l -4.70015,-2.38174 0.72114,-5.82187 c 1.41767,-11.44503 4.94106,-15.91608 17.35834,-22.02706 8.99438,-4.42646 9.14202,-4.46012 17.61602,-4.01654 9.03755,0.47309 15.12916,2.57046 20.08501,6.91539 4.88322,4.28125 8.07269,12.52459 13.88238,35.87967 4.40465,17.70676 6.1469,34.13179 4.9246,46.42668 -0.43742,4.4 -0.82733,8.36102 -0.86646,8.80226 -0.0391,0.44124 -2.40708,0.66624 -5.2621,0.5 -4.97009,-0.2894 -5.22803,-0.44608 -6.06237,-3.68261 l -0.87142,-3.38035 -5.66791,0.66615 c -3.3573,0.39458 -6.00197,1.26307 -6.48734,2.13037 -1.70422,3.04529 -7.83381,4.94748 -22.22001,6.89553 -1.65,0.22343 -4.35,-0.0634 -6,-0.63732 z M 520,433.12177 c -4.19438,-0.57954 -4.52128,-0.8425 -4.81336,-3.87177 L 514.87328,426 h -6.23664 c -3.51739,0 -6.75986,-0.52322 -7.43664,-1.2 -1.49314,-1.49314 -1.51987,-7.91822 -0.0937,-22.52375 1.65184,-16.91679 0.41722,-20.63104 -5.55667,-16.7168 -4.31809,2.82932 -5.67442,8.49857 -6.67418,27.89699 -0.62831,12.19105 -1.31876,18.20631 -2.15044,18.73469 -1.79785,1.14219 -12.5408,0.97781 -14.79073,-0.22631 C 470.7897,431.35227 470,429.87697 470,428.35127 c 0,-2.4949 -0.14788,-2.55618 -4.56896,-1.8932 -4.12628,0.61877 -4.81258,0.42229 -7.08337,-2.02793 l -2.51441,-2.7131 -0.8186,-33.60852 c -0.80867,-33.20036 -0.7934,-33.63585 1.25768,-35.85852 1.61272,-1.74765 3.17576,-2.25 7.00076,-2.25 4.22848,0 5.33804,0.44272 7.85061,3.13243 2.65657,2.84387 3.08505,2.99316 4.65121,1.62059 4.62215,-4.05081 7.83401,-4.75302 21.74004,-4.75302 17.62829,0 21.67602,1.46175 25.65905,9.26623 1.46909,2.87857 2.98584,6.80877 3.37056,8.73377 0.38473,1.925 1.4882,5.075 2.45216,7 3.85684,7.70199 5.33591,35.97399 2.69427,51.5 -1.1573,6.8019 -1.2759,7.00345 -4.191,7.12177 -1.65,0.067 -5.025,-0.15803 -7.5,-0.5 z m 42,-0.20406 c -8.70345,-1.66945 -9,-1.81651 -9,-4.46314 0,-2.42219 -0.20228,-2.49933 -5.95776,-2.27204 -3.27676,0.12941 -6.22702,-0.034 -6.55613,-0.36308 -0.3291,-0.32911 -0.85192,-6.16062 -1.16182,-12.95891 -0.65931,-14.46347 2.83068,-49.64122 5.29858,-53.40772 1.77187,-2.70421 9.86795,-3.86805 19.81695,-2.84874 8.01836,0.8215 8.79698,1.83697 7.91065,10.31695 -0.58552,5.60186 -0.48031,6.07897 1.34041,6.07897 1.08668,0 2.1962,0.22041 2.46558,0.4898 0.26939,0.26939 -0.0788,4.88189 -0.77372,10.25 -0.69494,5.36811 -1.98454,18.3102 -2.86579,28.7602 -0.88125,10.45 -1.79395,19.5625 -2.02823,20.25 -0.47564,1.39583 -1.93566,1.42467 -8.48872,0.16771 z m 47.37925,-1.36168 c -2.81641,-1.28081 -5.43322,-2.83434 -5.81513,-3.45229 -0.38191,-0.61794 -3.99534,-2.9352 -8.02984,-5.14946 -7.9437,-4.35976 -8.1143,-4.63308 -9.16192,-14.67888 -0.50184,-4.81224 -0.2775,-6.17604 1.34526,-8.17776 1.79092,-2.20916 2.62446,-2.39445 10.36496,-2.30402 7.29689,0.0853 7.9515,-0.0394 4.91742,-0.93651 -1.925,-0.56916 -4.30503,-1.89486 -5.28896,-2.94598 C 596.72712,392.86001 595.33296,392 594.61292,392 c -0.72004,0 -2.1106,-1.77725 -3.09013,-3.94945 -1.56935,-3.48021 -1.64683,-4.85123 -0.65208,-11.53942 C 593.66855,357.69977 604.23933,349 624.29852,349 h 9.27747 l 4.98803,4.75 c 4.26259,4.05917 5.15941,5.59125 6.1664,10.53429 0.64811,3.18137 2.09889,6.95455 3.22398,8.38486 1.12508,1.43031 2.0456,3.67933 2.0456,4.99783 0,2.35094 -2.48614,9.33302 -3.32325,9.33302 -0.23391,0 -2.39437,-0.68429 -4.80102,-1.52065 L 637.5,383.9587 l 2.67174,2.27065 c 3.52305,2.99417 7.82826,11.8388 7.82826,16.08242 0,2.1623 0.75616,4.06257 2.10082,5.27947 1.80638,1.63475 2.04516,2.77527 1.70371,8.13764 -0.46079,7.23648 -2.83968,10.46926 -11.30453,15.3622 -4.66783,2.69815 -5.69755,2.88695 -15.5,2.84193 -8.79512,-0.0404 -11.33145,-0.42634 -15.62075,-2.37698 z m 14.44407,-26.87795 C 624.08303,403.33021 623.34933,403 620.09476,403 c -3.90683,0 -4.01299,0.0854 -2.96537,2.38464 0.89461,1.96345 1.55318,2.25985 3.72857,1.67809 1.45312,-0.38861 2.78754,-1.4617 2.96536,-2.38465 z M 773.75,431.43427 c -2.6125,-1.35993 -4.75,-2.85773 -4.75,-3.32844 0,-0.47071 -1.39181,-1.13419 -3.0929,-1.47441 C 762.92749,426.0355 753,417.12354 753,415.04464 c 0,-0.51989 -0.73226,-1.35505 -1.62724,-1.85591 -1.18425,-0.66274 -1.84668,-3.19442 -2.43335,-9.29969 -0.44336,-4.61397 -1.27059,-11.76404 -1.83829,-15.88904 -0.5677,-4.125 -1.2381,-18.525 -1.48978,-32 -0.36092,-19.32366 -0.1779,-24.88144 0.86627,-26.30539 1.02566,-1.39871 3.37187,-1.96902 10.41561,-2.53181 l 9.09172,-0.72641 1.48046,5.09258 1.48045,5.09258 7.27708,1.72254 c 6.87536,1.62745 7.36464,1.92996 8.86351,5.48012 0.96044,2.27488 1.28412,4.53062 0.82028,5.71668 -1.44879,3.70466 -1.00408,6.62089 1.09328,7.16936 2.36571,0.61865 2.50011,2.15705 0.58822,6.73285 -1.32329,3.16709 -1.7019,3.37447 -6.04099,3.30887 -2.54607,-0.0385 -4.98857,0.33907 -5.42778,0.83903 -0.43921,0.49995 -0.45655,4.734 -0.0385,9.409 0.41802,4.675 0.79582,13.1125 0.83955,18.75 0.10694,13.78491 2.64727,13.59469 5.57905,-0.41776 1.06484,-5.0894 1.10844,-6.98712 0.19413,-8.45116 -0.8672,-1.38861 -0.88767,-2.34996 -0.0774,-3.63454 0.92731,-1.47008 2.66734,-1.74654 10.99271,-1.74654 H 803.5 l 0.29183,7.73721 c 0.25155,6.6691 0.5816,7.89228 2.39086,8.86056 1.96311,1.05063 2.06164,1.70035 1.52172,10.0341 -0.42624,6.57911 -1.23254,10.27888 -3.08144,14.13943 -3.60976,7.53724 -4.82713,8.69833 -10.78181,10.2833 -8.01426,2.13317 -14.54009,1.76927 -20.09116,-1.12033 z m 64.75,1.93989 c -12.7273,-2.50627 -12.5,-2.41467 -12.5,-5.0378 0,-2.37091 -0.28139,-2.50712 -4.75,-2.29924 -8.62544,0.40126 -7.97003,1.32531 -8.75873,-12.34884 -0.51322,-8.89802 -0.27976,-15.76051 0.84199,-24.75 0.85366,-6.84105 1.84758,-15.83844 2.20872,-19.9942 0.42448,-4.88456 1.29302,-8.39961 2.45668,-9.9423 1.71764,-2.27713 2.33686,-2.3864 13.5235,-2.3864 14.34637,0 14.98342,0.46002 14.0349,10.13462 -0.56451,5.75784 -0.45772,6.25 1.35607,6.25 1.08286,0 2.18896,0.35618 2.45801,0.7915 0.26905,0.43533 -0.14488,5.72283 -0.91983,11.75 -0.77496,6.02718 -2.07285,18.95551 -2.8842,28.72963 -0.81136,9.77412 -1.74743,18.21162 -2.08017,18.75 -0.61563,0.99611 -1.42888,1.05368 -4.98694,0.35303 z m 170.25,-0.1092 c -4.675,-0.36863 -4.75,-0.42891 -4.75,-3.81975 V 426 h -5.91821 c -9.94196,0 -9.30069,1.63314 -8.49307,-21.62972 0.76336,-21.9876 0.83767,-21.67637 -4.51443,-18.9087 -4.58611,2.37157 -6.15545,7.98956 -7.13394,25.53842 -0.47535,8.525 -0.88138,16.9625 -0.9023,18.75 L 977,433 h -7.41821 C 960.17445,433 959,432.53157 959,428.77947 c 0,-3.00336 -0.005,-3.00583 -4.56896,-2.3214 -4.15249,0.6227 -4.80555,0.42987 -7.16455,-2.11553 l -2.59559,-2.80069 -0.78422,-33.51101 c -0.77955,-33.31175 -0.77159,-33.52444 1.33887,-35.77092 1.64704,-1.7532 3.22725,-2.25992 7.04755,-2.25992 4.22848,0 5.33804,0.44272 7.85061,3.13243 2.65657,2.84387 3.08505,2.99316 4.65121,1.62059 4.62215,-4.05081 7.83401,-4.75302 21.74004,-4.75302 17.60294,0 21.63884,1.45556 25.73654,9.28208 1.5117,2.88729 2.7485,6.04355 2.7485,7.0139 0,0.97036 1.0711,4.33823 2.3802,7.48415 1.3091,3.14593 2.6725,8.86987 3.0297,12.71987 0.3573,3.85 1.1112,9.94458 1.6754,13.54351 0.7882,5.02802 0.659,9.519 -0.5579,19.39092 -0.8709,7.06607 -1.8225,13.23399 -2.1145,13.70649 -0.5246,0.84878 -1.3499,0.85838 -10.6629,0.12404 z m 43.331,-1.16887 c -2.4304,-0.98569 -5.5394,-2.79013 -6.9087,-4.00988 -1.3694,-1.21974 -5.1014,-3.53605 -8.2934,-5.14735 -6.8302,-3.44786 -7.6981,-4.79404 -8.7559,-13.58076 -0.7218,-5.99568 -0.5918,-6.86413 1.3692,-9.14393 2.0104,-2.33718 2.7747,-2.51271 10.5873,-2.43129 7.3122,0.0762 7.9046,-0.0379 4.5009,-0.86717 -2.1558,-0.52521 -4.5438,-1.8461 -5.3067,-2.93532 -0.7629,-1.08921 -2.025,-1.98039 -2.8047,-1.98039 -3.006,0 -4.7687,-5.9265 -4.1034,-13.79634 C 1033.9741,359.17439 1045.6479,349 1065.873,349 c 8.1611,0 9.1189,0.21463 12.2713,2.75 4.6932,3.77452 7.3493,6.56021 7.3894,7.75 0.1455,4.31064 2.0765,10.62808 4.2099,13.77245 2.3623,3.48171 2.4665,4.08308 1.352,7.80287 -1.4299,4.77257 -3.0086,5.58816 -7.9336,4.09886 -3.557,-1.07561 -3.6003,-1.05815 -1.5104,0.60923 3.0419,2.42688 8.3484,13.52875 8.3484,17.46583 0,2.13418 0.7537,3.95164 2.1261,5.12673 1.8734,1.60406 2.0479,2.48606 1.4681,7.41974 -0.8422,7.16535 -3.679,10.90486 -11.3909,15.01523 -5.5957,2.98252 -6.6218,3.18544 -15.8433,3.13319 -7.0626,-0.04 -11.1137,-0.56434 -14.279,-1.84804 z m 13.7423,-27.41801 c 0.26,-1.34905 -0.4753,-1.67808 -3.75,-1.67808 -4.3946,0 -4.5819,0.18114 -3.083,2.98186 0.7705,1.43962 1.6029,1.68654 3.75,1.11234 1.5178,-0.40592 2.9052,-1.49317 3.083,-2.41612 z M 1076,381.60699 c 0,-0.21616 -0.6984,-0.661 -1.5519,-0.98855 -0.89,-0.34149 -1.2914,-0.17385 -0.941,0.39301 0.5872,0.95021 2.4929,1.40545 2.4929,0.59554 z m -883.5,50.72912 c -8.34519,-1.01318 -9.36862,-1.39563 -9.68478,-3.61919 C 182.53933,426.77663 181.75131,426.43761 176.5,426 l -6,-0.5 -1.15357,-5.5 c -0.63447,-3.025 -1.19697,-8.45079 -1.25,-12.05731 -0.11396,-7.7494 3.26534,-36.40979 5.49264,-46.58407 l 1.56336,-7.14138 4.17378,-1.04897 c 8.51672,-2.14046 10.92926,-2.24704 12.78796,-0.56495 1.65549,1.4982 1.98803,1.46145 4.47464,-0.49452 6.29701,-4.95322 19.10546,-6.41812 30.58042,-3.49747 7.75874,1.97478 9.24976,2.741 13.3893,6.88053 4.14898,4.14898 6.4431,8.57182 8.04405,15.50814 0.69819,3.025 1.73749,7.3 2.30957,9.5 0.57207,2.2 1.05087,7.92625 1.06399,12.725 l 0.0239,8.725 -2.75,-0.42648 c -1.5125,-0.23456 -5.675,-0.67269 -9.25,-0.9736 -5.78755,-0.48716 -6.78986,-0.89897 -9.14448,-3.75712 -2.42725,-2.94629 -2.86239,-3.1107 -5.29706,-2.00139 -5.71341,2.60321 -9.55846,0.97658 -9.55846,-4.04367 0,-2.81236 -0.0734,-2.84803 -5.24722,-2.55 -5.02716,0.28958 -5.32505,0.468 -7.10298,4.25425 -1.43898,3.06442 -2.05726,7.87981 -2.75296,21.4411 -0.87605,17.07668 -1.40248,19.34456 -4.39684,18.94177 -0.55,-0.074 -2.35,-0.29843 -4,-0.49875 z M 883,427.45895 c -5.775,-3.01085 -10.99961,-6.14583 -11.61024,-6.96661 -0.61064,-0.82079 -1.57814,-1.49234 -2.15,-1.49234 -0.57187,0 -2.63526,-1.5955 -4.58532,-3.54556 -4.18731,-4.18731 -4.32751,-4.97676 -5.16852,-29.10272 -0.67959,-19.49551 -0.12522,-22.01477 6.31291,-28.68812 5.90514,-6.12088 13.24883,-9.1793 26.70117,-11.12017 2.2,-0.31741 6.76752,-1.09315 10.15004,-1.72386 l 6.15003,-1.14675 5.84997,3.88006 c 3.21748,2.13403 7.12133,5.24514 8.67522,6.91359 8.5156,9.14336 17.47119,37.94464 16.28685,52.37866 -0.85167,10.37964 -3.11613,14.84183 -9.88325,19.47527 -6.40142,4.38305 -16.07313,6.60879 -28.72886,6.61133 -7.14255,10e-4 -8.00044,-0.25941 -18,-5.47278 z m 17.34268,-23.56922 C 903.47414,402.46294 905,399.04359 905,393.45295 c 0,-5.36226 -1.51073,-5.75701 -7.12978,-1.86302 -3.55004,2.46019 -5.87022,6.60076 -5.87022,10.47596 0,2.86231 4.09747,3.75808 8.34268,1.82384 z M 102.5,423.8796 c -4.95,-2.24075 -10.35,-5.08802 -12,-6.32729 C 87.169609,415.05096 77.958382,410 76.727154,410 75.444371,410 66,399.85621 66,398.47843 c 0,-0.69545 -0.651472,-1.51445 -1.447715,-1.81999 -2.945706,-1.13038 -4.395844,-6.55491 -6.04917,-22.62815 -1.96537,-19.10687 -1.539699,-25.41332 2.571461,-38.09696 2.269409,-7.00153 4.230857,-10.69869 8.977661,-16.92213 6.891294,-9.03503 12.812225,-14.49642 16.754163,-15.45382 1.48148,-0.35981 10.3436,-1.02067 19.6936,-1.46857 18.5679,-0.88948 18.6342,-0.877 26.90415,5.06473 2.25272,1.61851 5.31999,4.60858 6.81616,6.6446 4.81756,6.55584 14.87464,27.25916 16.80141,34.58709 1.0289,3.91312 2.35771,8.68977 2.95292,10.61477 1.8614,6.02012 5.18261,38.14763 4.51736,43.69843 -0.90479,7.54943 -5.64007,13.09749 -15.59299,18.26942 -10.29564,5.35003 -16.93212,7.03429 -27.61746,7.00899 -9.27858,-0.022 -10.24433,-0.23265 -18.78155,-4.09724 z m 15.67684,-52.96982 3.99331,-2.03723 -0.6867,-4.99289 c -1.45375,-10.56999 -1.32983,-10.42468 -8.55744,-10.03434 -3.5167,0.18993 -7.61543,0.97696 -9.10831,1.74895 -3.66296,1.89419 -7.59496,7.2429 -7.992643,10.87241 -0.300821,2.74549 0.08502,3.13807 5.174943,5.26546 6.29603,2.63148 10.83248,2.4143 17.17684,-0.82236 z M 560.80616,343.75 c -0.86685,-0.6875 -1.76009,-1.87168 -1.98497,-2.63152 -0.22488,-0.75983 -1.91038,-1.49963 -3.74555,-1.644 -5.09916,-0.40113 -10.6548,-6.77919 -11.54538,-13.25449 -0.58367,-4.24378 -0.27641,-5.88044 2.01221,-10.71818 1.48559,-3.14028 4.04289,-7.23784 5.68289,-9.1057 2.78403,-3.17083 3.38954,-3.39586 9.12823,-3.39237 8.14643,0.005 11.96408,2.33324 15.19121,9.26475 1.33961,2.87733 2.44302,6.58151 2.45202,8.23151 0.009,1.65 0.91043,4.35 2.00318,6 1.21387,1.83289 1.98939,4.69232 1.99341,7.35 0.005,3.61832 -0.5653,4.92189 -3.39341,7.75 -3.15931,3.15931 -3.85368,3.4 -9.80887,3.4 -3.61985,0 -7.09476,-0.54398 -7.98497,-1.25 z m 273.60838,0.48469 c -0.59701,-0.40408 -1.54946,-1.58395 -2.11656,-2.62193 -0.60094,-1.09993 -2.30644,-1.98756 -4.0882,-2.12772 -4.89576,-0.38513 -9.99404,-6.07449 -11.21564,-12.51593 -0.9304,-4.90599 -0.7828,-5.82188 1.83745,-11.40181 1.56701,-3.33701 4.08596,-7.5298 5.59766,-9.3173 2.5529,-3.01867 3.18708,-3.24973 8.90964,-3.24626 10.19442,0.006 15.3611,4.63981 17.81644,15.97828 0.6572,3.03489 1.79111,6.40561 2.51979,7.49049 1.57167,2.33993 1.75669,10.85213 0.29524,13.58288 -1.65632,3.09485 -6.41421,4.94582 -12.6707,4.9293 -3.18981,-0.008 -6.28812,-0.34592 -6.88512,-0.75 z M 251.5,293.27639 c -2.86946,-0.70532 -4.5,-2.25566 -4.5,-4.27864 0,-1.43232 -1.1059,-1.83736 -5.97895,-2.18985 -3.28843,-0.23786 -6.15207,-0.62945 -6.36364,-0.87019 C 234.44583,285.69697 233.73946,268.625 233.0877,248 c -1.70133,-53.83873 -2.87085,-78.79018 -3.95926,-84.46988 -1.23651,-6.45255 0.57545,-10.54585 4.64724,-10.49832 1.49838,0.0175 3.59642,0.69146 4.66231,1.49771 1.73941,1.31569 2.16948,1.24843 4.19708,-0.6564 1.99691,-1.876 7.929,-3.70413 12.42653,-3.82956 1.24048,-0.0346 1.8255,2.11565 2.84488,10.45645 0.94629,7.7427 1.65226,10.5 2.6884,10.5 1.12876,0 1.40512,2.36013 1.40512,12 0,6.6 0.38931,12 0.86514,12 0.47583,0 2.14023,-1.00298 3.69867,-2.22885 2.49126,-1.95963 4.02785,-2.23141 12.72093,-2.25 9.47617,-0.0203 9.98255,0.0894 12.17515,2.63792 1.25826,1.46249 3.609,3.34231 5.22386,4.17739 2.16507,1.1196 4.45607,4.44371 8.724,12.65802 3.18333,6.12683 6.00853,12.57201 6.27822,14.32261 0.2697,1.7506 1.30433,4.53291 2.29918,6.18291 1.14194,1.89394 2.22467,6.87121 2.93673,13.5 1.31524,12.244 3.05667,36.56496 3.06934,42.86658 0.009,4.2444 -0.0682,4.34971 -2.74122,3.76392 -1.5125,-0.33146 -5.52927,-0.89589 -8.92615,-1.25429 -5.58144,-0.58888 -6.23905,-0.90221 -6.82929,-3.2539 -0.85133,-3.39197 -2.09109,-4.08848 -7.3103,-4.107 -8.3672,-0.0297 -8.18224,0.45081 -8.19957,-21.30049 -0.008,-10.56815 -0.37429,-19.78024 -0.81303,-20.47132 -1.20722,-1.9015 -9.93585,-0.41299 -12.27,2.09243 -5.43786,5.83685 -8.33187,21.12009 -7.36871,38.91407 l 0.69013,12.75 -6.36154,-0.116 C 256.36269,293.8202 252.6,293.54677 251.5,293.27639 Z M 722,290.26547 c -0.825,-0.31714 -2.89248,-1.63162 -4.59439,-2.92105 C 715.70369,286.05499 713.35703,285 712.19079,285 c -1.16623,0 -2.60209,-0.9 -3.19079,-2 -0.5887,-1.1 -1.61703,-2.00479 -2.28518,-2.01065 C 705.24687,280.97648 699,274.71026 699,273.25063 c 0,-0.57016 -0.63444,-1.28011 -1.40986,-1.57767 -1.91116,-0.73338 -4.24141,-9.50449 -5.02692,-18.92137 l -0.64633,-7.74842 4.76007,-5.0889 c 4.93131,-5.27197 8.92094,-7.90319 12.02338,-7.92958 5.93806,-0.0505 4.95607,-4.11163 -1.82513,-7.54793 -5.54844,-2.8116 -5.76423,-3.63709 -3.27235,-12.5181 2.32377,-8.28184 6.09414,-12.24418 16.73734,-17.58952 l 9.11995,-4.58031 8.51993,0.49588 c 8.7576,0.50972 12.97378,1.9009 18.85674,6.22204 5.75466,4.22689 9.70313,13.86879 15.77984,38.53325 3.69823,15.0106 3.81982,16.06833 3.85107,33.5 0.0178,9.9 -0.25789,18.70094 -0.61253,19.55764 -0.50651,1.22358 -1.67864,1.43805 -5.46527,1 -4.43924,-0.51354 -4.89662,-0.8239 -5.78334,-3.92438 l -0.96287,-3.36675 -5.55484,0.65286 c -4.01814,0.47226 -6.29701,1.36391 -8.23761,3.22313 -4.0965,3.92469 -21.95615,6.88918 -27.85127,4.62297 z M 88.831553,287.05024 c -3.117646,-1.6499 -7.342942,-4.13617 -9.389547,-5.52503 C 77.395401,280.13634 75.075579,279 74.286845,279 c -0.788734,0 -4.063203,-2.69527 -7.276597,-5.98949 -7.462484,-7.65019 -9.125275,-12.39451 -9.463566,-27.00169 -0.138432,-5.97745 0.08393,-11.41113 0.494134,-12.07486 1.074434,-1.73847 21.815891,-4.29777 23.500426,-2.89973 0.716328,0.5945 1.609546,2.8988 1.984929,5.12068 0.409062,2.42121 1.665446,4.89441 3.135823,6.17289 3.384768,2.94302 10.081027,4.80874 14.650166,4.08186 3.86173,-0.61434 4.71586,-1.68881 6.27234,-7.89032 0.65787,-2.62117 -0.2137,-2.99527 -12.856868,-5.51844 -3.786046,-0.75558 -7.316139,-2.33037 -10.258653,-4.57644 C 82.001522,226.54101 79.108948,225 78.041037,225 c -1.067911,0 -2.301517,-0.61403 -2.741347,-1.36452 -0.439829,-0.75049 -2.24492,-2.10311 -4.011312,-3.00583 -2.663912,-1.36141 -3.559246,-2.7668 -5.25,-8.24082 -3.270033,-10.58713 -2.806952,-18.81564 1.620284,-28.79088 3.619491,-8.15526 4.7585,-9.40426 12.29052,-13.47736 1.40295,-0.75867 3.450818,-2.14615 4.550818,-3.08328 3.347122,-2.85155 10.740135,-5.03737 17.03343,-5.03613 7.24986,0.001 19.93372,2.31171 21.97003,4.00169 C 128.50909,170.15718 135,188.37384 135,198.26779 v 4.89112 l -3.25,-0.64875 c -1.7875,-0.35682 -4.4371,-2.00271 -5.888,-3.65753 -2.44571,-2.78945 -2.97418,-2.95835 -7.25,-2.31715 -4.45954,0.66875 -4.612,0.60716 -4.612,-1.86292 0,-1.40499 -0.4366,-2.82436 -0.97022,-3.15415 -1.67936,-1.03791 -10.96068,3.61076 -13.693547,6.85859 l -2.617608,3.11085 3.390685,0.81259 c 8.39909,2.01288 10.28947,3.19797 19.48305,12.21396 7.30651,7.16536 10.00999,10.56518 11.48214,14.43954 1.05902,2.78713 1.9255,5.81475 1.9255,6.72805 0,0.91329 0.72181,2.45813 1.60403,3.43297 0.93475,1.03287 1.95395,4.82102 2.44263,9.07874 2.24515,19.56093 2.31361,17.86833 -0.948,23.43905 -4.10258,7.00705 -12.24572,13.74983 -19.09866,15.81429 -3.025,0.91128 -9.325,1.86976 -14,2.12995 -7.976145,0.44393 -8.849347,0.2882 -14.168447,-2.52675 z M 184.5,287.59037 c -7.50448,-2.40895 -14.98143,-5.94229 -15.97437,-7.54891 -0.33554,-0.54291 -2.39107,-1.46668 -4.56785,-2.05283 C 161.781,277.40249 160,276.47508 160,275.92773 c 0,-0.54735 -1.575,-1.92445 -3.5,-3.06023 -1.925,-1.13578 -3.5,-2.58736 -3.5,-3.22573 0,-0.63837 -0.9,-1.72274 -2,-2.4097 -1.1,-0.68696 -2,-2.31532 -2,-3.61857 0,-1.30326 -0.94124,-2.99451 -2.09163,-3.75835 -2.23926,-1.48681 -3.09726,-4.75572 -4.90379,-18.6832 -1.29944,-10.0181 0.4169,-18.57894 4.84617,-24.17195 1.52447,-1.925 4.23031,-5.6404 6.01298,-8.25645 5.41318,-7.94377 15.17315,-11.71582 30.35776,-11.73273 14.55371,-0.0162 21.07992,3.36972 27.20246,14.11316 1.05817,1.85681 2.0866,4.39249 2.28539,5.63484 0.19879,1.24235 1.45103,5.47935 2.78274,9.41557 1.33172,3.93621 2.17208,7.56 1.86747,8.05286 -0.3046,0.49286 -1.73424,1.34491 -3.17696,1.89343 -2.01179,0.76488 -2.8712,0.65807 -3.68749,-0.45827 C 209.0453,233.67969 202.38859,231 198.91306,231 c -1.68645,0 -3.22455,0.7135 -3.7815,1.75418 -0.55348,1.03419 -0.65708,7.49864 -0.25242,15.75 0.60797,12.39679 0.78027,13.38715 1.50812,8.66831 l 0.82174,-5.32752 11.1455,0.69067 c 6.13002,0.37986 11.53249,1.04923 12.00547,1.48748 0.47299,0.43826 0.69381,4.45595 0.49071,8.92822 -0.35207,7.75264 -0.26403,8.1578 1.89003,8.69843 2.7828,0.69844 2.85923,2.78482 0.31909,8.71072 -2.38855,5.57226 -5.58021,7.37223 -15.31424,8.63661 -10.66579,1.38541 -15.44913,1.09594 -23.24556,-1.40673 z m 401.87241,-0.51902 c -3.37017,-1.56028 -6.29517,-3.28342 -6.5,-3.82919 -0.20482,-0.54578 -3.20174,-2.41351 -6.65981,-4.15052 -7.10515,-3.56895 -8.00539,-5.06681 -8.91782,-14.83788 -0.52695,-5.64298 -0.34768,-6.56855 1.69305,-8.7408 2.13598,-2.27365 2.80303,-2.40039 10.39729,-1.97548 6.88533,0.38524 7.58457,0.28969 4.61488,-0.63059 -1.925,-0.59655 -4.30503,-1.94464 -5.28896,-2.99576 C 574.72712,248.86001 573.24166,248 572.41002,248 c -2.69595,0 -4.69105,-6.76401 -3.97249,-13.46799 C 570.56708,214.66388 581.50832,205 601.87302,205 c 8.1611,0 9.11884,0.21463 12.27129,2.75 4.26013,3.42621 7.89567,7.08255 7.73043,7.77464 -0.52661,2.20574 2.51782,12.59567 3.92082,13.38083 2.3726,1.32777 2.34557,9.38198 -0.0395,11.76703 -1.49665,1.49665 -2.3316,1.58707 -5.88857,0.63766 l -4.14464,-1.10627 2.56031,2.14805 c 3.55575,2.98322 7.71683,11.82245 7.71683,16.39258 0,2.65075 0.64831,4.3661 2.12947,5.63431 1.83399,1.57031 2.05343,2.5601 1.58145,7.13311 -0.71029,6.88207 -2.83201,9.96361 -10.09024,14.65483 L 613.68993,290 603.09496,289.9541 c -9.47584,-0.041 -11.2422,-0.34554 -16.72255,-2.88276 z m 15.45091,-26.39327 C 602.08303,259.33021 601.34933,259 598.09476,259 c -3.90683,0 -4.01299,0.0854 -2.96537,2.38464 0.89461,1.96345 1.55318,2.25985 3.72857,1.67809 1.45312,-0.38861 2.78754,-1.4617 2.96536,-2.38465 z m 204.07134,27.00127 c -2.53293,-1.24196 -5.92828,-3.36539 -7.54522,-4.71873 -1.61694,-1.35334 -5.27079,-3.54477 -8.11967,-4.86985 -5.68022,-2.642 -6.60833,-4.31894 -7.57352,-13.68417 -0.40267,-3.90718 -0.0843,-5.81792 1.36693,-8.20432 l 1.89186,-3.11092 8.79248,0.43585 c 7.67082,0.38024 8.29749,0.29403 4.91237,-0.67579 -2.13406,-0.6114 -4.72156,-1.95309 -5.75,-2.98153 C 792.84145,248.84145 791.56156,248 791.02568,248 c -0.53588,0 -1.71902,-1.44008 -2.6292,-3.20018 -1.28153,-2.47822 -1.5305,-4.84479 -1.10355,-10.49004 C 788.74381,215.12585 800.41308,205 821.07022,205 c 7.96739,0 9.09949,0.24075 11.62826,2.47284 6.0127,5.30727 7.05998,6.87567 8.24998,12.35512 0.6775,3.11962 2.37742,7.35948 3.77759,9.42191 l 2.54577,3.74986 -1.75509,4.59563 c -1.64279,4.30158 -1.9554,4.56727 -4.88591,4.15252 -1.72195,-0.24371 -4.03082,-0.7506 -5.13082,-1.12643 -1.30092,-0.44447 -1.18523,-0.25692 0.33099,0.53657 3.03454,1.58808 8.16901,11.8092 8.16901,16.26194 0,2.32278 0.82989,4.37246 2.5,6.17454 2.83582,3.05991 3.1483,6.84157 1.05119,12.7217 -1.90378,5.33803 -4.14651,7.53463 -11.05119,10.82392 -5.38193,2.56386 -7.03012,2.85516 -16,2.82782 -8.31449,-0.0254 -10.77623,-0.41109 -14.60534,-2.28859 z m 13.98346,-25.58286 C 822.07747,260.70345 820.18663,259 816.44098,259 c -3.7018,0 -3.74711,0.0387 -2.83399,2.41821 0.65765,1.71382 4.05591,2.08138 6.27113,0.67828 z m -471.83723,21.37217 c -5.75251,-3.00552 -10.83737,-6.1405 -11.29969,-6.96662 C 336.27888,275.67592 335.31472,275 334.59862,275 c -1.65369,0 -7.03412,-5.10163 -8.01772,-7.60228 -0.41055,-1.04375 -1.10934,-10.89772 -1.55287,-21.89772 -0.93929,-23.29518 -0.74801,-24.1468 7.24685,-32.26413 5.82729,-5.91655 11.70237,-8.58923 22.45108,-10.21338 3.72572,-0.56297 9.50552,-1.53978 12.84399,-2.1707 5.83161,-1.10209 6.25524,-1.03854 10.78883,1.61832 5.99756,3.5148 13.14824,10.64324 15.70628,15.65743 5.37496,10.53578 10.93494,31.33292 10.93494,40.9022 0,10.35452 -1.74779,15.99084 -6.31358,20.36018 -5.50904,5.27202 -10.68837,7.35999 -21.26134,8.57122 -16.10646,1.84514 -17.72882,1.5971 -29.38419,-4.49248 z m 19.50456,-24.92321 c 2.0159,-2.01589 2.45455,-3.44556 2.45455,-8 0,-6.55861 -1.21934,-7.05145 -7.19701,-2.90892 -4.48138,3.1056 -6.9836,9.23599 -4.82933,11.83174 1.94824,2.34748 6.76598,1.883 9.57179,-0.92282 z m 64.45736,24.92641 c -5.77345,-3.08213 -10.85831,-6.24917 -11.29969,-7.03787 -0.44137,-0.78869 -1.34264,-1.43878 -2.00281,-1.44464 -0.66017,-0.006 -2.73679,-1.59188 -4.6147,-3.52449 -3.17377,-3.26621 -3.46827,-4.12876 -4.17893,-12.23935 -1.18428,-13.51589 -1.06272,-36.0512 0.2079,-38.54125 0.61302,-1.20134 3.41643,-4.55312 6.22979,-7.44839 5.75367,-5.92117 11.5844,-8.5819 22.38159,-10.21338 3.72572,-0.56297 9.50552,-1.53978 12.84399,-2.1707 5.83161,-1.10209 6.25524,-1.03854 10.78883,1.61832 12.76159,7.47879 19.29565,18.53202 24.79025,41.93602 2.49618,10.63234 2.25955,24.96929 -0.50019,30.30604 -2.22265,4.29813 -9.85458,9.97448 -15.77455,11.73252 -2.65161,0.78745 -10.12058,1.70157 -16.5977,2.03138 L 442.5,289.07574 Z m 19.54264,-24.92641 c 2.0159,-2.01589 2.45455,-3.44556 2.45455,-8 C 454,245.90432 453.71101,245 452.22784,245 c -2.88582,0 -8.98714,5.74064 -10.28682,9.67872 -1.06324,3.22164 -0.99012,3.81221 0.6176,4.9878 2.78121,2.03368 6.26692,1.59885 8.98683,-1.12107 z M 528,288.34334 c -6.77986,-1.33492 -13.29609,-3.71855 -15.76162,-5.76558 -1.50611,-1.25047 -4.06826,-2.59877 -5.69366,-2.99624 -1.62541,-0.39747 -3.56342,-1.59091 -4.30671,-2.65209 C 501.49473,275.86824 500.29221,275 499.56574,275 c -4.97946,0 -5.82947,-7.94562 -5.88383,-55 -0.0515,-44.57321 0.41519,-52 3.2676,-52 0.99308,0 2.41018,-0.72848 3.14912,-1.61884 2.11829,-2.55239 11.97672,-1.29394 16.96973,2.16621 3.7773,2.61768 3.93164,2.94286 3.93164,8.28391 0,4.65122 0.43283,6.01106 2.64985,8.32513 l 2.64985,2.76585 -1.30354,19.78887 c -0.90609,13.75511 -1.02801,23.56162 -0.39985,32.16232 l 0.90369,12.37345 6.41292,1.96284 c 4.75219,1.45452 6.9844,1.70245 8.61968,0.95736 1.21372,-0.55301 4.20101,-1.30452 6.63841,-1.67004 4.02786,-0.60401 4.53198,-0.44435 5.53285,1.75234 0.60567,1.32929 1.42865,5.47442 1.82885,9.21141 0.58203,5.43491 1.10178,6.89235 2.59746,7.28348 1.60902,0.42077 1.86983,1.49781 1.86983,7.72152 v 7.23254 l -9.25,0.63783 c -5.0875,0.3508 -11.5,0.83167 -14.25,1.06861 -2.75,0.23693 -6.125,0.20928 -7.5,-0.0614 z M 69.637261,133.60412 c -4.47357,-1.67462 -9.143927,-5.81679 -11.372158,-10.08606 -2.726347,-5.22365 -0.307598,-46.42687 3.27311,-55.757203 0.8773,-2.286002 7.255134,-3.937171 13.756911,-3.561552 L 80.5,64.5 l -0.28298,7 c -0.155639,3.85 -1.168139,12.120787 -2.25,18.379527 -2.361606,13.662273 -2.540182,21.399903 -0.532344,23.066263 0.789072,0.65487 2.915449,1.04747 4.725284,0.87244 5.919441,-0.57246 8.152206,-7.13034 10.322473,-30.31823 0.308863,-3.3 0.818896,-8.1375 1.133406,-10.75 L 94.187676,68 h 8.338774 c 9.55485,0 8.7883,-0.832765 10.42212,11.322359 1.56268,11.625935 1.32818,29.382701 -0.46791,35.430811 -2.03297,6.84576 -8.17834,14.43798 -13.946862,17.23047 -6.001487,2.90527 -22.928529,3.85452 -28.896537,1.62048 z M 180.75936,133.3847 c -3.70736,-0.69031 -7.19486,-1.53582 -7.75,-1.87892 -2.45618,-1.518 0.79124,-35.706384 3.66453,-38.579673 0.52446,-0.524458 3.51531,-1.490891 6.64633,-2.14763 9.00212,-1.888215 9.10876,-1.623806 7.17826,17.797873 -0.87054,8.75801 -1.90133,18.2051 -2.29064,20.99355 L 187.5,134.6398 Z M 152.5,133.11534 l -3,-0.64802 -0.0257,-10.98366 c -0.0141,-6.04101 -0.39119,-12.89616 -0.8379,-15.23366 -0.75248,-3.93757 -1.04464,-4.24887 -3.97429,-4.23469 -1.73915,0.008 -3.7603,0.39455 -4.49144,0.85806 -1.47287,0.93372 -3.08736,11.45147 -3.13794,20.44237 -0.0492,8.74235 -0.87061,9.68426 -8.44546,9.68426 -7.38945,0 -8.74644,-1.05891 -8.532,-6.65783 0.0809,-2.11319 -0.19099,-11.5349 -0.60429,-20.93712 l -0.75145,-17.094954 3.27524,-0.655048 c 5.61368,-1.122736 6.94962,-0.804539 7.60624,1.811669 l 0.61911,2.466717 3.86621,-3.106973 c 3.84692,-3.091471 3.9088,-3.103519 12.4005,-2.414507 15.59046,1.265002 17.05962,2.734623 18.74217,18.747996 0.98337,9.35903 0.004,25.06781 -1.73801,27.887 -0.6475,1.04768 -6.27502,1.08276 -10.97098,0.0684 z m 56.55407,-1.28223 c -6.94445,-4.71552 -8.07694,-9.32831 -9.68634,-39.453683 l -0.64752,-12.120572 4.26725,-4.629428 C 206.15946,72.188218 207.99203,71 210.12736,71 212.81211,71 213,71.261632 213,75 c 0,3.571482 0.26085,4 2.4349,4 1.3392,0 3.64636,0.460594 5.12702,1.023543 2.40913,0.91595 2.6313,1.398359 2.11349,4.58923 C 221.93324,89.186247 220.38669,91 217.22916,91 h -2.52595 l 0.54951,13.88097 c 0.30223,7.63453 1.05087,14.81777 1.66365,15.96276 1.85464,3.46543 3.86818,1.38506 5.47424,-5.65594 C 224.1404,107.51668 225.68388,106 231.74079,106 h 4.35852 l -0.64461,6.25 c -1.00523,9.74649 -2.30854,13.61988 -5.90225,17.5413 -3.10571,3.38892 -3.78402,3.65559 -10.18982,4.00616 -5.91428,0.32366 -7.33883,0.0522 -10.30856,-1.96435 z m 75.51224,0.58518 C 278.52765,130.20652 277,128.34625 277,123.20454 c 0,-5.592 2.70959,-11.13552 9.10768,-18.63328 C 292.13906,97.503232 298,85.259794 298,79.728326 v -3.990011 l -3.75,0.603929 c -2.89148,0.465665 -4.75103,1.763406 -8.12247,5.668496 -5.41682,6.274212 -9.1732,8.351233 -13.45052,7.437212 -4.20228,-0.897988 -5.35298,-1.936112 -6.71264,-6.055917 -1.02598,-3.108749 -0.82295,-4.060139 2.06365,-9.670008 4.07334,-7.916212 6.28273,-10.30713 12.47198,-13.4967 4.31699,-2.224721 6.19466,-2.563496 13.7456,-2.480018 10.76411,0.119 14.77304,1.372951 18.70442,5.850543 2.87577,3.275322 3.04878,3.942989 3.02889,11.688944 -0.0255,9.936406 -2.65893,18.155542 -8.87996,27.715204 l -4.22994,6.5 9.69707,0.7585 c 10.83439,0.84745 14.28541,2.0751 16.13991,5.7415 3.36942,6.66144 0.79772,12.6642 -6.73445,15.71928 -4.77115,1.9352 -7.26361,2.21419 -19.47154,2.17954 -9.61333,-0.0273 -15.23255,-0.49119 -17.93369,-1.48053 z m 62.19368,-0.51758 c -5.53617,-2.50766 -9.67071,-8.3842 -12.37795,-17.59313 -2.33754,-7.95135 -2.3885,-20.571306 -0.10557,-26.143977 2.87729,-7.023502 9.41303,-15.440776 14.89272,-19.180094 C 353.54741,65.995835 355.09693,65.5 360.05543,65.5 c 4.90348,0 6.47768,0.490769 10.36642,3.231808 2.52175,1.777495 5.64767,3.498521 6.94649,3.824503 3.87829,0.973389 10.20179,8.433225 12.66736,14.943689 2.65018,6.997945 3.21673,19.49633 1.18744,26.19554 -1.55882,5.14603 -9.98527,14.61421 -15.62634,17.55815 -6.22494,3.24866 -22.29704,3.60927 -28.83681,0.64702 z m 24.82924,-26.97476 c 1.96645,-1.63202 1.81483,-11.010768 -0.24794,-15.336441 -0.91457,-1.917889 -2.89788,-3.99163 -4.4209,-4.622484 -6.62591,-2.744542 -9.56247,1.21294 -8.46997,11.414607 0.90565,8.456858 3.04657,11.123958 8.25138,10.279328 1.91216,-0.3103 4.11151,-1.09105 4.88743,-1.73501 z M 409.5,131.79828 c -9.32213,-3.24354 -15.96853,-16.28634 -12.34824,-24.23201 2.50011,-5.48716 9.46321,-3.74071 11.64572,2.92092 2.03386,6.20786 3.73996,7.51281 9.82232,7.51281 6.23074,0 7.3802,-1.30815 7.3802,-8.39907 0,-5.51393 -0.9299,-6.14145 -10.5,-7.08568 -9.78897,-0.96582 -14.29941,-2.27193 -15.48299,-4.483473 -1.57423,-2.941471 -1.28293,-18.285851 0.39059,-20.574523 1.25381,-1.714684 3.00484,-1.966307 16.02666,-2.303022 22.53051,-0.582589 29.15848,0.847275 28.36896,6.120087 -0.16677,1.113766 -1.5711,2.970175 -3.12072,4.125355 -2.42436,1.807253 -4.64574,2.170094 -15.91965,2.600326 -15.25641,0.582211 -18.71865,2.5 -4.51333,2.5 11.9701,0 18.31337,2.2096 20.35231,7.08948 1.87933,4.49786 1.79383,16.525 -0.15066,21.19264 -1.76356,4.23335 -7.64911,10.69919 -11.65151,12.8003 -3.15958,1.65866 -15.76765,1.79273 -20.29966,0.21586 z m -226,-54.373565 c -0.55,-0.137375 -2.18053,-0.508411 -3.62341,-0.824524 -3.33084,-0.729738 -5.33664,-5.229101 -4.34463,-9.745725 0.42652,-1.941909 2.5442,-5.050654 5.19642,-7.628318 4.03398,-3.920576 4.63958,-4.20312 6.1259,-2.85802 0.90716,0.820966 2.86339,1.954232 4.34718,2.518369 3.84504,1.461882 5.51741,7.796332 3.29487,12.479996 -1.87274,3.94651 -7.35609,6.967456 -10.99633,6.058222 z"
         id="path2" />
    </clipPath>
    <filter
       style="color-interpolation-filters:sRGB;"
       id="filter8"
       x="-0.005554698"
       y="-0.036406208"
       width="1.0111094"
       height="1.0728124">
      <feGaussianBlur
         stdDeviation="2.01 5.02765"
         result="fbSourceGraphic"
         id="feGaussianBlur8" />
      <feColorMatrix
         result="fbSourceGraphicAlpha"
         in="fbSourceGraphic"
         values="0 0 0 -1 0 0 0 0 -1 0 0 0 0 -1 0 0 0 0 1 0"
         id="feColorMatrix8" />
      <feGaussianBlur
         id="feGaussianBlur9"
         stdDeviation="2.01 5.03"
         result="blur"
         in="fbSourceGraphic" />
    </filter>
    <clipPath
       clipPathUnits="userSpaceOnUse"
       id="clipPath9">
      <rect
         style="fill:#97507c;fill-opacity:0.776423;stroke-width:12.1939;stroke-dasharray:4.96048, 2.48024, 1.24012, 2.48024"
         id="rect10"
         width="1190"
         height="583.8894"
         x="71.585587"
         y="-104.38608"
         transform="rotate(7.823695)" />
    </clipPath>
    <clipPath
       clipPathUnits="userSpaceOnUse"
       id="clipPath10">
      <rect
         style="fill:#97507c;fill-opacity:0.776423;stroke-width:12.1939;stroke-dasharray:4.96048, 2.48024, 1.24012, 2.48024"
         id="rect11"
         width="1190"
         height="583.88934"
         x="56.743256"
         y="-60.030411"
         transform="rotate(3.8910824)" />
    </clipPath>
    <clipPath
       clipPathUnits="userSpaceOnUse"
       id="clipPath11">
      <rect
         style="fill:#97507c;fill-opacity:0.776423;stroke-width:12.1939;stroke-dasharray:4.96048, 2.48024, 1.24012, 2.48024"
         id="rect12"
         width="1190.0137"
         height="583.88354"
         x="-20.485912"
         y="-64.970459"
         transform="matrix(0.99670032,0.08116936,-0.07945641,0.99683834,0,0)" />
    </clipPath>
    <clipPath
       clipPathUnits="userSpaceOnUse"
       id="clipPath12">
      <rect
         style="fill:#97507c;fill-opacity:0.776423;stroke-width:21.4281;stroke-dasharray:8.71696, 4.35848, 2.17924, 4.35848"
         id="rect13"
         width="2164.4875"
         height="991.29889"
         x="-46.753307"
         y="-45.563103" />
    </clipPath>
    <clipPath
       clipPathUnits="userSpaceOnUse"
       id="clipPath13">
      <rect
         style="fill:#97507c;fill-opacity:0.776423;stroke-width:11.7808;stroke-dasharray:4.79244, 2.39622, 1.19811, 2.39622"
         id="rect14"
         width="1190"
         height="545"
         x="0"
         y="0" />
    </clipPath>
    <clipPath
       clipPathUnits="userSpaceOnUse"
       id="clipPath15">
      <rect
         style="fill:#97507c;fill-opacity:0.776423;stroke-width:12.1939;stroke-dasharray:4.96048, 2.48024, 1.24012, 2.48024"
         id="rect16"
         width="1190"
         height="583.8894"
         x="71.585587"
         y="-104.38608"
         transform="rotate(7.823695)" />
    </clipPath>
    <clipPath
       clipPathUnits="userSpaceOnUse"
       id="clipPath16">
      <rect
         style="fill:#97507c;fill-opacity:0.776423;stroke-width:12.1939;stroke-dasharray:4.96048, 2.48024, 1.24012, 2.48024"
         id="rect17"
         width="1190"
         height="583.88934"
         x="56.743256"
         y="-60.030411"
         transform="rotate(3.8910824)" />
    </clipPath>
    <clipPath
       clipPathUnits="userSpaceOnUse"
       id="clipPath17">
      <rect
         style="fill:#97507c;fill-opacity:0.776423;stroke-width:12.194;stroke-dasharray:4.96053, 2.48027, 1.24013, 2.48027"
         id="rect18"
         width="1190.1951"
         height="583.80597"
         x="-13.490421"
         y="-86.427788"
         transform="matrix(0.9929998,0.11811604,-0.11166761,0.99374561,0,0)" />
    </clipPath>
    <clipPath
       clipPathUnits="userSpaceOnUse"
       id="clipPath18">
      <rect
         style="fill:#97507c;fill-opacity:0.776423;stroke-width:21.4281;stroke-dasharray:8.71696, 4.35848, 2.17924, 4.35848"
         id="rect19"
         width="2164.4875"
         height="991.29889"
         x="-46.753307"
         y="-45.563103" />
    </clipPath>
    <clipPath
       clipPathUnits="userSpaceOnUse"
       id="clipPath19">
      <rect
         style="fill:#97507c;fill-opacity:0.776423;stroke-width:11.7808;stroke-dasharray:4.79244, 2.39622, 1.19811, 2.39622"
         id="rect20"
         width="1190"
         height="545"
         x="0"
         y="0" />
    </clipPath>
    <linearGradient
       inkscape:collect="always"
       xlink:href="#linearGradient1"
       id="linearGradient2"
       x1="-68.934478"
       y1="260.98985"
       x2="1028.1946"
       y2="260.98985"
       gradientUnits="userSpaceOnUse" />
    <linearGradient
       inkscape:collect="always"
       xlink:href="#linearGradient5"
       id="linearGradient7"
       x1="132.61186"
       y1="544.68634"
       x2="594.99994"
       y2="3.8882587e-07"
       gradientUnits="userSpaceOnUse" />
  </defs>
  <g
     id="g1"
     inkscape:label="oval">
    <path
       style="display:inline;fill:#ffffff;fill-opacity:1;stroke-width:11.7808;stroke-dasharray:4.79244, 2.39622, 1.19811, 2.39622;opacity:1"
       d="M 808.17204,0 C 810.8629,133.44022 699.5354,456.93557 164.6853,544.97161 L 0,545 V 0 c 143.78484,-3.4912143 808.17204,0 808.17204,0 z"
       id="path1"
       clip-path="url(#clipPath19)"
       sodipodi:nodetypes="ccccc"
       inkscape:label="oval-back" />
    <path
       style="display:inline;fill:url(#linearGradient7);fill-opacity:1;stroke-width:11.7808;stroke-dasharray:4.79244, 2.39622, 1.19811, 2.39622;opacity:0.6"
       d="M 808.17204,0 C 810.8629,133.44022 699.5354,456.93557 164.6853,544.97161 L 0,545 V 0 c 143.78484,-3.4912143 808.17204,0 808.17204,0 z"
       id="path3"
       clip-path="url(#clipPath19)"
       sodipodi:nodetypes="ccccc"
       inkscape:label="oval-grad" />
  </g>
  <path
     style="display:inline;opacity:0.2;fill:url(#linearGradient2);stroke-width:11.7808;stroke-dasharray:4.79244, 2.39622, 1.19811, 2.39622"
     d="M 856.09322,14.79595 C 792.79451,58.038055 783.94962,188.00043 720.27935,250.18388 581.20942,386.00626 251.58751,437.60549 166.28196,520.06683 L -68.934478,492.65135 C -56.123969,253.26053 525.60681,456.17423 767.08268,291.57496 844.03252,239.12298 854.29114,105.94619 934.66501,59.825569 988.92828,28.687888 1118.3073,45.985978 1118.3073,45.985978 1114.2512,-15.683577 921.7565,-30.0615 856.09322,14.79595 Z"
     id="path4"
     transform="matrix(0.99360363,-0.11026712,0.11165166,0.92701401,13.48821,80.682881)"
     clip-path="url(#clipPath17)"
     sodipodi:nodetypes="ssccaacs" />
  <path
     style="display:inline;fill:#e2d9b2;fill-opacity:1;stroke-width:11.7808;stroke-dasharray:4.79244, 2.39622, 1.19811, 2.39622"
     d="m 1012.0922,-31.196175 c -3.1808,-0.954043 -6.282,-1.415696 -9.2822,-1.427042 -4.55466,-0.01722 -8.89581,1.001274 -13.04457,2.939569 -4.15234,1.939964 -8.12161,4.804367 -11.97314,8.500614 -3.84973,3.694514 -7.58702,8.225749 -11.25595,13.4804586 -2.55179,3.6547066 -5.07564,7.66733711 -7.56779,11.9788164 m 26.2506,-43.928183 c -3.33964,1.782105 -6.50167,4.153364 -9.50286,7.065079 -3.73676,3.625365 -7.22732,8.091232 -10.51289,13.321795 -5.0727,8.075636 -9.59391,17.8647719 -13.87477,29.2169332 m 8.95534,-23.0633042 c -0.30828,0.404996 -0.61492,0.81469 -0.91995,1.229033 -7.53566,10.2361415 -13.7846,22.842595 -19.82137,37.589564 -2.15229,5.257744 -4.22083,10.6383 -6.33963,16.262711 m 20.40438,-30.67791 c -2.11185,5.314214 -4.38118,11.171576 -6.62206,17.046324 -5.47092,14.342711 -13.01864,34.596521 -18.93754,52.701473 -0.81742,2.500363 -1.63101,5.039258 -2.4349,7.61045 M 937.42121,22.67363 c -6.5793,14.281909 -11.68266,30.017629 -16.16478,47.344422 -1.59993,6.184944 -3.08487,12.42613 -4.53068,18.779996 m 16.40454,-38.003433 c -3.32111,8.310819 -6.32764,16.524842 -9.13794,24.71861 -3.80952,11.107154 -7.08315,21.653757 -10.36994,32.374485 m 6.05755,-31.342902 c -7.68926,19.201697 -13.56807,38.295652 -19.73874,59.046632 m 18.23611,-39.448161 c -3.91209,11.210481 -8.51234,23.116401 -13.88175,35.790971 -3.12862,7.38517 -6.49599,14.97836 -10.10704,22.78295 m 10.06333,-29.39108 c -1.07087,3.09562 -2.18906,6.17395 -3.3545,9.2381 -7.92495,20.83617 -17.77392,40.34455 -29.18516,59.70502 m 26.99119,-51.83907 c -7.67119,18.6522 -14.56524,36.01884 -22.17664,54.96456 -2.50343,6.23135 -5.05388,12.55596 -7.67432,18.99633 m 18.12761,-48.62558 c -3.92598,10.62323 -8.61498,21.07165 -13.89129,31.48107 -5.29952,10.45521 -11.11466,20.72153 -17.23967,30.97998 m 15.61914,-44.63701 c -1.10947,2.74938 -2.2739,5.47068 -3.49036,8.16665 -9.16806,20.31876 -21.08283,38.76123 -34.22979,56.73233 m 26.08184,-36.75431 c -10.044,21.51813 -21.5335,42.96266 -34.29937,67.96425 m 28.75392,-46.36886 C 843.04973,254.34832 831.233,272.868 817.10588,292.39672 m 23.04265,-36.73021 c -11.87748,17.84156 -26.27977,36.37378 -43.18399,53.69625 m 26.61699,-28.37545 c -11.91043,16.44025 -23.77523,31.88598 -36.41941,47.17706 -3.76503,4.5532 -7.8844,9.15629 -12.32969,13.86804 m 37.00925,-42.36315 c -7.31995,9.63951 -15.32307,18.41299 -23.93074,26.39048 -9.839,9.11866 -21.97435,17.26731 -35.98354,24.68207 m 45.14921,-40.20736 c -3.4656,4.02247 -7.00688,8.00148 -10.62904,11.95162 -12.72682,13.8792 -28.51435,27.22599 -47.36569,42.91097 -1.35934,1.13102 -3.16984,2.63636 -4.52918,3.76738 m 48.89456,-45.50838 c -12.13714,12.12131 -26.7515,23.48065 -42.71191,34.31237 -3.07964,2.09004 -6.19733,4.15259 -9.34716,6.1928 m 23.30129,-14.68747 c -7.51756,5.95231 -15.83849,11.97714 -24.64557,17.96728 -11.18939,7.61047 -23.20525,15.1921 -35.08413,22.31228 m 46.79634,-28.84718 c -2.24659,1.53183 -4.54824,3.0582 -6.90227,4.57741 -18.4174,11.88597 -40.10952,23.37907 -63.42736,33.40017 m 55.45136,-26.91016 c -18.28372,9.77144 -34.10917,19.82187 -53.30865,31.82375 -5.74991,3.59435 -11.64363,7.25536 -17.54421,10.80665 m 53.02417,-29.12931 c -11.68154,6.53108 -24.09577,12.61096 -36.97416,17.87799 -11.22333,4.59014 -22.82458,8.57376 -34.66551,11.71775 m 45.07659,-19.5443 c -2.18271,1.13345 -15.92663,8.29185 -18.10934,9.4253 -17.85926,9.30458 -37.20522,19.38939 -55.47993,28.35675 m 59.66901,-38.16575 c -4.8e-4,2.9e-4 -0.45785,0.27475 -0.45833,0.27504 -20.90569,12.52888 -44.95035,24.58473 -69.42177,39.33537 m 52.13758,-20.02307 c -21.65072,10.46366 -34.84649,16.91815 -56.49721,27.38182 m 34.03864,-10.99874 c -10.07175,4.48659 -20.17186,9.1076 -30.56236,13.8725 -12.10856,5.55277 -24.40049,11.20403 -36.44938,16.56026 m 42.39814,-20.17261 c -3.10777,1.44138 -6.20171,2.85749 -9.28648,4.25121 -16.98828,7.67543 -33.59715,14.62634 -50.6627,21.37656 m 34.03298,-13.2398 c -21.39923,10.14185 -42.02921,17.62593 -61.68047,23.69598 -0.55277,0.17075 -1.10465,0.34034 -1.65562,0.5088 m 36.50046,-25.88253 c -14.09161,5.46328 -27.59153,11.73705 -40.71511,18.33812 -11.9882,6.02998 -23.86947,12.44113 -35.31855,18.63169 m 59.35767,-17.06493 c -7.70977,3.72806 -15.25057,7.21592 -22.60416,10.55891 -14.16403,6.43906 -26.75208,11.95411 -39.75847,18.09173 m 51.72818,-27.02619 c -22.06043,9.86978 -44.31699,19.28143 -65.39566,28.6517 m 38.38968,-14.08006 c -17.64486,7.74464 -35.60539,15.67961 -53.925,24.15974 -7.37103,3.41204 -14.67481,6.85478 -21.896,10.33861 m 51.50666,-30.01784 c -10.71391,4.36576 -21.08224,8.8637 -31.02894,13.35712 -14.76157,6.66853 -29.20082,13.60448 -42.34938,20.11157 m 57.82348,-30.36938 c -3.35413,1.57514 -6.7098,3.15323 -10.1014,4.75867 -21.02961,9.95451 -40.7816,19.73355 -59.44723,30.71803 m 36.70876,-8.85335 c -20.4384,9.32206 -37.52631,17.18553 -53.36318,25.26323 -5.49022,2.80032 -10.67619,5.55024 -15.58718,8.28151 m 49.9752,-41.03131 c -12.61287,4.68248 -24.26082,10.06719 -34.62558,15.33026 -7.29993,3.70679 -14.30498,7.5301 -20.67083,11.14667 m 32.84337,-2.8195 c -2.99768,1.43489 -6.00658,2.85584 -9.01043,4.26125 -9.84502,4.6062 -19.77039,9.10746 -28.98552,13.34586 -9.29114,4.27336 -17.94204,8.31638 -25.69691,12.20585 -6.73237,3.37663 -12.70261,6.59448 -17.77808,9.70573 m 68.97524,-27.83791 c -6.20249,3.39674 -11.92222,6.52206 -17.54825,9.69026 -8.15358,4.59155 -15.39359,8.87536 -21.79447,13.10395 -6.36393,4.20419 -11.68268,8.21573 -15.88262,12.10527 -2.09378,1.93904 -3.89761,3.83732 -5.39785,5.69471 -1.49978,1.85684 -2.69576,3.6724 -3.57155,5.44299 -0.36863,-0.12447 -0.73693,-0.2488 -1.10489,-0.37299 m 37.87005,-53.15024 c -7.95542,4.43318 -14.93595,8.82328 -20.92932,13.14337 -6.19013,4.46192 -11.31283,8.83984 -15.28903,13.05045 -1.98823,2.10544 -3.693,4.17257 -5.09922,6.18888 -1.40607,2.01609 -2.51757,3.98694 -3.3157,5.90134 -0.91159,-0.24534 -1.82111,-0.48817 -2.72855,-0.72842 m 27.38772,-4.52367 c -5.82244,3.81207 -10.57746,7.3712 -14.31687,10.7351 -2.10629,1.89478 -3.8948,3.73176 -5.36442,5.51561 -1.46937,1.78352 -2.62342,3.5182 -3.45316,5.20375 -12.9736,-5.11657 -25.07537,-10.66096 -36.84225,-16.39073 m 41.20839,1.48613 c -0.40092,0.39053 -0.78515,0.78108 -1.15258,1.17133 -1.63333,1.73475 -2.93839,3.46709 -3.90529,5.17213 -23.1193,-8.2137 -43.97938,-13.73339 -64.17494,-18.9737 m 57.98951,21.81614 c -20.72563,-6.93103 -40.96299,-13.77476 -61.24655,-20.64491 m 33.85878,7.46225 c -21.75259,-6.0414 -42.18416,-13.58556 -63.17253,-20.95087 m 32.16711,11.59276 c -20.57695,-6.86481 -39.49053,-13.20719 -58.40272,-19.49699 m 30.50232,15.83011 c -12.5703,-3.71818 -24.79279,-8.12478 -36.70898,-12.90277 0,0 0,0 1e-5,0 0.006,-10e-4 13.61738,-2.91304 37.95663,-9.10224 m -23.36833,10.9189 c -4.90986,-1.66339 -9.8115,-3.31228 -14.70326,-4.94656 0,0 0,0 0,0 0.008,-10e-4 26.10914,-4.77301 68.62626,-12.24188 m -69.10275,8.61828 c 9.95421,-2.026 34.36122,-6.73388 71.1397,-13.63011 -0.67967,0.12744 10.70578,-2.01617 10.02611,-1.88873 m -53.72532,10.36333 c 11.46363,-2.38112 26.72457,-5.69297 42.18367,-9.59698 10.49263,-2.64979 21.59462,-5.69912 32.54268,-9.18965 m -55.81201,16.14078 c 8.0675,-1.80427 16.77159,-3.86497 25.6578,-6.20101 15.33095,-4.03026 31.72674,-9.00436 48.96366,-15.78043 m -51.80002,9.40035 c 1.17479,-0.30755 2.36265,-0.614 3.56475,-0.91973 21.01292,-5.34411 46.32396,-10.07132 73.01726,-16.15151 m -46.90899,16.87392 c 22.16481,-4.18496 44.94615,-10.70164 71.85118,-19.92092 m -55.8347,8.6688 c 21.20901,-6.28859 44.43856,-9.41728 70.87848,-11.79133 m -54.7183,20.06303 c 20.60395,-4.53725 43.26932,-9.88199 67.7707,-15.45019 m -35.75844,0.50402 c 23.4438,-5.95242 47.708,-12.58607 71.4978,-20.32808 2.28593,-0.74391 4.57018,-1.49889 6.85228,-2.26552 M 356.25865,507.006 c 16.43498,-3.9223 34.96416,-8.20839 53.94352,-12.17503 4.6643,-0.97483 9.36413,-1.93217 14.07805,-2.8624 m -46.48033,5.70973 c 9.07882,-2.97078 18.62255,-5.54337 28.64229,-7.9058 13.60231,-3.20712 27.71181,-5.94314 42.47499,-8.78014 m -35.93464,6.14199 c 1.12346,-0.33013 2.24281,-0.65651 3.35813,-0.97929 20.3481,-5.88886 38.77501,-10.41466 55.98011,-14.55117 m -49.6319,11.4741 c 25.45019,-6.61887 50.925,-14.99482 78.75842,-24.50945 m -45.15938,12.99777 c 16.12471,-5.48919 32.71278,-9.71274 48.75287,-13.26435 6.67332,-1.47761 13.23249,-2.83471 19.58519,-4.11205 m -50.73911,17.82305 c 9.5117,-2.84012 18.79364,-5.88509 27.92426,-9.13623 16.72788,-5.95629 32.90806,-12.59119 48.89886,-19.84882 m -52.95738,22.19192 c 2.25367,-0.85296 4.51983,-1.68881 6.7971,-2.51019 18.31763,-6.60687 37.84429,-12.43533 56.71685,-18.4631 m -39.48027,4.53491 c 19.70459,-7.00772 39.35592,-13.81773 58.75765,-21.07512 m -30.04681,22.97369 c 15.14178,-5.34858 31.86852,-11.35743 47.72188,-17.14655 9.15353,-3.34257 18.32069,-6.7231 27.10614,-10.00736 m -54.32647,15.49496 c 8.62396,-3.27539 17.40407,-6.47709 26.30847,-9.62287 11.62042,-4.1053 23.29593,-8.06032 35.006,-11.93466 m -27.90376,17.40343 c 3e-4,-1.4e-4 0.25262,-0.11717 0.25292,-0.11731 21.98547,-10.19371 39.78596,-17.68806 58.13734,-27.20019 m -34.13473,10.59115 c 20.57492,-9.86356 36.87816,-17.87813 51.46061,-26.57578 0.23702,-0.14137 0.47335,-0.28279 0.70902,-0.42428 m -37.66216,22.75308 c 10.64375,-4.52107 20.7658,-9.78917 30.23724,-15.36147 10.97801,-6.45866 21.45676,-13.55023 30.95975,-20.61087 m -38.7284,14.18517 c 2.02225,-1.06966 4.01044,-2.14759 5.96412,-3.23259 11.62437,-6.45577 22.14401,-13.22718 31.39805,-20.08197 6.11868,-4.53233 11.74333,-9.14484 16.81604,-13.78799 m -26.80061,27.37561 c 4.75575,-3.15179 9.29561,-6.39143 13.58065,-9.70718 8.97686,-6.94627 16.77843,-14.18204 23.14322,-21.63146 7.50213,-8.78058 13.97443,-17.74382 19.41368,-26.82321 m -36.99887,36.9803 c 7.75182,-6.5429 15.01147,-12.87456 21.67679,-19.47693 11.17507,-11.0695 21.47526,-21.81839 31.19768,-33.28801 m -29.25038,45.86129 c 0.85211,-0.87917 1.68719,-1.75809 2.50503,-2.63722 14.74108,-15.84575 27.02362,-31.30401 37.83894,-47.74896 m -32.40577,29.07487 c 11.24113,-13.08333 20.46227,-27.86223 27.62472,-42.69642 2.58928,-5.36267 4.92293,-10.75794 7.00832,-16.13481 m -12.28106,34.74757 c 5.4867,-7.84933 10.04029,-15.31636 13.86439,-22.53444 7.853,-14.82273 12.71361,-28.76731 15.9538,-42.50608 m -21.28787,45.88287 c 0.49236,-0.95618 0.98297,-1.91267 1.47204,-2.87029 11.00827,-21.55467 20.55212,-42.42322 28.76908,-65.58612 1.10168,-3.10553 2.17147,-6.23109 3.20935,-9.38035 m -26.32813,57.57373 c 8.0382,-14.4157 13.88944,-29.58895 18.64514,-44.57211 1.24629,-3.9265 2.42234,-7.85621 3.54602,-11.77338 m -16.48508,37.3578 c 2.74124,-6.42716 5.3968,-12.93033 8.01167,-19.45484 5.04971,-12.59982 9.95722,-25.29961 15.08384,-37.82824 m -7.90278,24.60987 c 5.2277,-17.59666 11.6538,-36.66555 18.45219,-54.87566 0.61826,-1.65608 1.24145,-3.31005 1.86915,-4.96052 m -3.94111,35.82113 c 2.78979,-9.66862 5.25016,-19.42544 7.51377,-29.2312 3.06234,-13.26577 5.75937,-26.59845 8.42343,-39.89409 m -22.17544,43.46869 c 0.36308,-1.34256 0.72943,-2.67267 1.09938,-3.99071 5.79655,-20.65136 12.53268,-38.52744 21.5125,-54.86594 3.08767,-5.61792 6.45072,-11.071513 10.14222,-16.394722 m -20.04349,58.824672 c 3.74578,-14.91025 8.30842,-28.78567 13.81715,-41.65688 2.45017,-5.72484 5.09625,-11.271653 7.95441,-16.641205 m -6.28422,29.628885 c 2.17696,-5.95921 4.21976,-11.67441 6.21643,-17.1775 4.7965,-13.219821 9.3043,-25.148567 14.70189,-36.299643 M 842.6169,102.92805 c 5.28737,-14.725023 12.37764,-30.234055 21.33637,-45.808319 2.1791,-3.788239 4.46572,-7.575673 6.86309,-11.35894 M 856.1323,77.969216 c 3.33827,-6.612898 6.92591,-13.046641 10.83509,-19.303895 7.93449,-12.700386 17.14411,-24.594836 28.20877,-35.770414 m -32.08192,26.181655 c 10.91781,-15.890524 24.54308,-30.629091 42.8689,-44.4695626 1.46392,-1.1056157 2.95899,-2.2064803 4.48664,-3.3030041 M 879.2529,21.515932 C 885.83633,14.232831 893.66802,7.1680858 902.827,0.56434135 910.42963,-4.9172518 919.00515,-10.121783 928.54635,-14.831292 M 902.24244,6.2603125 c 1.16006,-1.0298531 2.34531,-2.0477587 3.55639,-3.0538657 14.13039,-11.7388729 31.47475,-21.6570538 53.67022,-30.6422158 m -33.03322,26.88424192 c 13.06938,-8.82049072 29.56016,-17.07461492 49.5617,-24.64225792 2.58928,-0.979663 5.23301,-1.946103 7.93004,-2.898803 m -34.70795,7.844173 c 7.84583,-3.584925 16.11434,-7.171237 24.60578,-10.590548 13.15243,-5.296185 27.6706,-10.528037 42.4003,-14.648332 M 977.52173,-25.303 c 1.1305,-0.48544 2.27245,-0.968486 3.42622,-1.449361 16.25092,-6.773211 34.06165,-12.807133 55.21045,-19.241545 m -46.17252,13.065448 c 21.37722,-7.232354 45.98822,-13.248296 76.68382,-19.133318 m -52.8316,1.418827 c 15.4455,-3.518847 34.6259,-7.089392 54.8526,-8.9341 -3.0693,1.159132 -6.1345,2.34579 -9.202,3.566832 m -17.1741,8.405535 c 8.9265,-1.61858 19.8988,-3.654921 28.8253,-5.273501 -14.8341,4.15668 -28.8352,7.755516 -42.656,11.468515 m 51.3586,-19.518256 c 1.9954,-0.464691 3.9969,-0.906046 6.0061,-1.325026 -18.08,4.508548 -37.0727,10.587021 -56.4749,16.870739 m 30.385,-3.213779 c -13.5371,4.464328 -27.3775,8.121411 -41.2329,11.375069 -5.3237,-2.237971 -10.2718,-3.423156 -14.9318,-3.635269 -4.65443,-0.211857 -9.00052,0.549014 -13.09166,2.177892 -2.86631,1.141215 -5.60876,2.7094 -8.23497,4.667094 m 30.65323,-10.839259 c -2.4502,-0.474934 -4.8223,-0.66742 -7.1164,-0.594237 -4.5911,0.146455 -8.8977,1.357286 -12.93429,3.540449 -4.03915,2.184544 -7.83184,5.354995 -11.4029,9.461183 -3.57125,4.106406 -6.93396,9.163918 -10.10492,15.13573 -2.47406,4.659347 -4.83716,9.8864879 -7.08893,15.6594392 M 981.71943,-31.74384 c -2.56755,1.727827 -5.03063,3.76205 -7.40213,6.080469 -3.84506,3.759 -7.44617,8.261772 -10.85741,13.412573 -6.87874,10.3865614 -12.80056,23.083939 -18.83157,38.079824 -1.68083,4.179337 -3.35716,8.501033 -5.07993,13.017509 m 19.17313,-57.749185 c -1.24926,1.539312 -2.47377,3.163247 -3.67542,4.868699 -7.2248,10.2539051 -13.39083,23.0830261 -19.43545,38.220616 -1.54883,3.878775 -3.07324,7.864283 -4.60815,11.980091 M 952.60917,11.56656 c -2.76181,6.462237 -5.80512,13.804518 -8.6916,20.808761 -4.95609,12.026307 -13.95483,33.918404 -19.30099,47.633025 -0.74797,1.918798 -1.49564,3.854696 -2.23836,5.80089 M 949.18034,15.94159 c -0.3024,0.753625 -0.60561,1.516769 -0.90961,2.289238 -5.67719,14.426188 -12.00336,33.107072 -18.05977,53.345577 -1.22105,4.080343 -2.4394,8.252911 -3.64258,12.485984 M 942.19746,40.34021 c -3.09963,9.982663 -6.48259,19.920283 -10.37244,30.720185 -4.5833,12.725219 -9.6658,26.005112 -14.78805,39.900035 m 12.84947,-41.649826 c -0.90684,2.366318 -1.83366,4.753481 -2.78181,7.155267 -7.18294,18.19527 -15.72026,37.571919 -26.42339,55.611089 -0.53066,0.89438 -1.06686,1.78586 -1.60872,2.67412 m 23.2921,-43.759245 c -5.4598,15.274515 -11.36975,29.444115 -18.21591,42.831495 -1.55414,3.03904 -3.15369,6.03237 -4.80479,8.98645 m 12.51623,-25.83382 c -2.60426,6.62525 -5.26506,13.32574 -8.00406,20.06323 -7.41451,18.23846 -15.52775,37.06609 -25.26689,56.77092 m 27.24271,-51.71527 c -9.10107,19.4352 -17.52368,41.40515 -27.34694,62.7838 m 15.94582,-45.40939 c -5.39462,12.71171 -11.21096,25.90205 -17.38872,39.10808 -5.33952,11.41414 -10.95208,22.84619 -16.78116,33.95673 m 21.02333,-51.29664 c -2.71874,6.97863 -5.57837,13.84069 -8.53982,20.66598 -7.73471,17.8263 -16.0997,35.17521 -23.69358,52.51549 m 25.65573,-61.76078 c -0.23472,0.48023 -0.47057,0.96077 -0.70755,1.4416 -8.45566,17.15686 -18.33898,34.67618 -29.83884,52.20572 m 24.56074,-22.96221 c -13.74741,23.23324 -28.76309,45.69321 -48.75861,66.98432 m 38.88243,-43.94863 c -13.90161,20.41393 -29.58391,43.03022 -49.40712,63.26498 m 31.55435,-45.11455 c -11.0976,16.66791 -24.45189,33.55974 -40.14079,49.76997 m 22.42398,-29.99065 c -11.0465,14.16248 -22.12505,28.67131 -33.36717,42.66621 -2.54411,3.16707 -5.2522,6.36668 -8.10293,9.59214 m 21.65467,-35.0713 c -6.00124,6.8132 -12.25505,13.77331 -18.77455,20.76737 -9.27989,9.95537 -20.91089,20.61931 -34.05178,31.4854 m 38.38172,-31.09561 c -0.65522,0.6751 -1.31053,1.34825 -1.96599,2.01944 -12.80325,13.11048 -28.65362,26.20659 -45.78558,39.17223 -1.4556,1.10161 -2.92248,2.20379 -4.39956,3.30636 m 30.37405,-27.44056 c -10.87903,7.7042 -20.23039,14.61681 -32.52804,23.8145 -6.64958,4.97338 -14.36245,10.76412 -21.61277,16.0757 m 36.00033,-19.66451 c -3.6316,2.52265 -7.3355,5.04503 -11.10562,7.56992 -17.47902,11.7059 -36.77554,23.72671 -57.58963,36.45949 m 41.75273,-33.88703 c -18.54826,11.79758 -37.34418,21.41831 -57.52079,29.72998 -4.44966,1.83301 -8.95785,3.59954 -13.54853,5.31654 m 58.93542,-26.2731 c -11.86355,7.32707 -25.71387,14.22165 -41.12491,20.63511 -12.22462,5.08739 -25.2765,9.807 -38.78653,14.12192 m 66.27517,-21.57065 c -7.16092,4.2827 -14.52883,8.46677 -22.16506,12.68666 -11.86812,6.5585 -24.24974,13.12249 -36.91783,20.02086 m 33.25233,-24.22448 c -24.35314,12.48352 -48.84963,23.75446 -75.94384,35.04398 m 52.38868,-19.518 c -18.64003,10.10932 -35.70783,16.86451 -52.13027,22.0569 -4.47023,1.41338 -8.86645,2.70312 -13.20976,3.91102 m 55.48006,-16.35311 c -11.23431,5.97815 -23.33489,11.61562 -36.22793,17.26306 -12.60267,5.52024 -25.78221,10.9722 -39.43107,16.69545 m 53.69935,-23.02053 c -4.76155,2.30353 -9.52522,4.48675 -14.30886,6.5675 -18.2706,7.94724 -36.64911,14.32053 -56.09428,20.19369 m 44.50387,-11.80493 c -20.70693,9.63212 -40.59398,16.19881 -60.84851,20.9188 m 37.68812,-20.69424 c -16.31336,7.05238 -31.31642,14.61056 -45.78604,22.88909 -5.12454,2.93191 -10.169,5.94672 -15.16305,9.04939 m 34.77891,-16.48692 c -7.40583,3.1992 -14.74123,6.30381 -21.97911,9.30687 -16.15706,6.70369 -31.5994,12.80674 -46.20082,18.32661 m 50.65193,-27.68764 c -5.8e-4,2.4e-4 -1.07425,0.44805 -1.07483,0.44829 -21.39027,8.94211 -40.57675,18.19484 -59.26692,27.96707 m 31.17421,-6.60582 c -18.13072,6.67233 -35.45596,14.4267 -50.48486,21.19864 -5.54856,2.50015 -2.80521,1.26489 -8.35377,3.76504 m 31.17055,-13.22662 c -9.98304,3.93662 -19.73719,7.98295 -29.05265,11.92499 -9.85408,4.16997 -20.36392,8.71323 -29.53682,12.66267 m 35.35403,-14.41037 c 0.0612,-0.0247 -3.70779,1.49441 -3.64658,1.4697 -21.61732,8.6972 -38.63758,15.22823 -55.30151,20.88444 m 26.73874,-25.08893 c -16.09819,7.16311 -31.1157,15.02927 -44.55285,23.16134 -3.06935,1.85755 -6.05109,3.7258 -8.94119,5.5999 m 40.882,-9.2297 c -7.01676,3.69993 -13.62919,7.24837 -20.06371,10.87717 -9.55382,5.38797 -18.13488,10.63096 -25.97127,16.05557 -4.00124,2.7698 -7.73363,5.53617 -11.21092,8.31509 M 367.02379,536.272 c -8.59811,4.19663 -16.51881,8.39173 -23.69121,12.53352 -8.02767,4.63567 -15.11921,9.20527 -21.17523,13.63678 -2.82785,2.06929 -5.43207,4.11004 -7.80199,6.1151 m 21.57221,-20.43334 c -7.81502,4.30374 -15.03278,8.66851 -21.37096,12.97792 -6.37171,4.33221 -11.82063,8.58489 -16.14483,12.67885 -2.16127,2.04619 -4.04025,4.05137 -5.6162,6.00857 -1.57591,1.95715 -2.84904,3.86655 -3.80034,5.72374 -5.5941,-1.55637 -11.16966,-3.07244 -16.69244,-4.56145 m 49.34549,-10.18242 c -0.63687,0.45085 -1.26615,0.89749 -1.88845,1.34083 -6.2551,4.45616 -11.62623,8.45393 -16.06484,12.32608 -2.20051,1.91968 -4.13185,3.77518 -5.77466,5.58526 -1.64215,1.80935 -2.98767,3.56435 -4.01733,5.27617 -13.35867,-4.56957 -27.12628,-9.39527 -40.97726,-14.13534 m 53.87677,-12.56995 c -1.77294,1.67815 -3.34385,3.3605 -4.68754,5.03045 -1.48008,1.83945 -2.68446,3.6637 -3.58426,5.45664 -15.27171,-4.90348 -31.25155,-8.46921 -47.06259,-11.09554 m 42.48701,23.2612 c -21.44473,-7.50081 -44.95467,-15.3984 -69.44432,-23.88166 m 28.37847,8.35128 c -21.82602,-8.74447 -43.30775,-14.82961 -62.52827,-20.55393 m 51.51941,14.26354 c -21.50881,-7.39947 -43.32814,-14.96871 -64.33545,-22.6108 0,0 0,0 0,0 0.002,-3.9e-4 1.91128,-0.34494 5.54337,-1.02198 m 38.06855,9.39391 c -14.86442,-4.90329 -30.04297,-9.34744 -45.91655,-13.36756 0,0 0,0 0,0 0.004,-5.2e-4 6.86677,-0.99086 18.12614,-2.48139 m -7.70572,14.47439 c -5.87869,-1.95366 -11.79275,-3.94168 -17.72331,-5.95315 0,0 0,0 0,0 0.006,-10e-4 16.9952,-3.03921 45.59065,-8.9438 m -26.44012,7.37931 c 7.28853,-1.54581 36.04517,-7.60498 60.70866,-14.62726 4.82893,-1.37492 9.81216,-2.86811 14.81525,-4.47942 m -69.03281,16.70237 c 11.61149,-1.80327 25.48451,-4.62366 44.16454,-9.26925 5.67817,-1.41212 11.57141,-2.93425 17.84887,-4.59529 m -27.83261,0.51645 c 5.1577,-0.80882 10.48382,-1.68977 16.40144,-2.68878 15.73423,-2.65624 39.16351,-6.83278 60.57096,-9.39557 m -57.59983,8.0986 c 27.26,-4.88699 48.73562,-10.71739 79.61177,-18.35697 0,0 0.009,-0.002 0.009,-0.002 m -68.40914,15.31074 c 21.14408,-5.611 45.92821,-11.01529 74.42276,-18.28999 m -46.63496,12.76439 c 22.47419,-5.03982 47.06005,-12.74529 74.6531,-24.01436 m -52.90272,13.73336 c 22.61534,-4.98433 46.85797,-9.7761 74.07276,-13.63928 m -32.8344,17.25096 c 22.61353,-5.71382 42.77485,-12.02389 62.11846,-19.97611 0.46192,-0.18989 0.92336,-0.38071 1.38434,-0.57248 m -44.79383,6.82192 c 14.18057,-3.60115 27.83105,-6.84657 41.33942,-9.79992 12.57019,-2.74824 24.88388,-5.21462 37.35755,-7.48822 m -65.28922,21.65666 c 7.16414,-2.28115 14.34803,-4.32913 21.57226,-6.22564 18.23723,-4.78765 35.67353,-8.35127 53.40493,-12.35925 m -54.5105,2.2332 c 3e-5,0 0.50503,-0.13545 0.50506,-0.13546 24.73003,-6.63784 49.57215,-14.05555 76.27929,-22.58635 m -42.65694,25.03281 c 25.61319,-8.26588 47.71388,-15.19375 68.75033,-23.98554 2.35538,-0.9844 4.69744,-1.99199 7.03066,-3.02753 m -53.51542,18.45272 c 28.43813,-8.04507 24.63208,-7.00961 53.07022,-15.05468 -0.11728,0.0329 7.34814,-2.05709 7.23086,-2.02415 m -41.51891,10.80502 c 9.14563,-3.03678 18.5755,-6.3429 28.20931,-9.97784 15.60837,-5.88921 31.60827,-12.58743 47.72125,-20.33283 m -46.5555,26.32492 c 1.61563,-0.57331 3.23833,-1.15102 4.86705,-1.73352 22.652,-8.10132 45.77816,-16.88917 67.04575,-27.35044 m -62.48642,15.03281 c 23.26015,-7.31754 45.95555,-15.17167 67.33957,-22.56419 m -45.67059,20.24842 c 17.69964,-5.24095 35.54716,-12.94182 53.35327,-21.64633 7.84302,-3.83405 15.76569,-7.9076 23.64574,-12.06224 m -46.59118,19.20659 c 9.61396,-3.2005 19.34604,-6.70146 28.95641,-10.26859 17.18856,-6.37996 34.30316,-13.05596 50.99387,-19.3455 m -53.99084,19.40578 c 2.82669,-0.90845 5.59678,-1.87071 8.31319,-2.87997 20.56546,-7.64098 38.76078,-18.27572 54.71515,-28.89288 m -48.5918,20.10794 c 22.20991,-10.19658 46.04072,-19.53001 65.70689,-27.79606 2.01128,-0.84538 4.00341,-1.68897 5.9784,-2.53339 m -42.58039,24.28954 c 15.15603,-6.14219 28.84532,-13.35395 40.84276,-20.61016 6.54635,-3.95932 12.74081,-8.02526 18.48517,-12.04563 m -32.0913,19.07101 c 6.06539,-3.33603 12.14179,-6.62635 17.85168,-9.73453 11.63029,-6.33097 22.18911,-12.1527 31.95474,-18.09424 0.94307,-0.57378 1.87583,-1.14696 2.79831,-1.71991 m -39.58821,23.76493 c 8.55244,-5.64742 17.13755,-11.12871 25.30207,-16.5791 10.06204,-6.71711 19.25546,-13.22353 27.44362,-20.00587 3.652,-3.02499 7.21071,-6.04257 10.68793,-9.07862 m -46.63098,26.86599 c 1.5949,-1.22351 3.17736,-2.44985 4.74704,-3.68227 9.12136,-7.16155 17.5707,-14.34394 25.06217,-21.87896 10.51165,-10.57276 20.19323,-21.26941 29.08918,-32.52937 m -34.1183,42.36323 c 4.32133,-3.64794 8.21207,-7.23548 11.68907,-10.78949 13.99226,-14.30218 24.53292,-28.03318 33.17695,-41.62592 m -20.57144,33.41391 c 15.52016,-16.87707 27.91988,-34.2452 37.48472,-50.85287 0.55632,-0.96595 1.10323,-1.92961 1.64085,-2.89078 m -24.30236,33.90348 c 8.22957,-11.65748 15.71686,-22.69619 22.89084,-34.19057 4.71627,-7.55656 9.15262,-15.08252 13.35803,-22.7135 m -17.97174,34.36649 c 2.57711,-3.71143 5.00819,-7.50078 7.30722,-11.33951 11.87077,-19.82081 20.5071,-41.442 27.80725,-61.90199 M 778.414,282.86875 c 9.3157,-17.10203 18.41975,-36.16969 27.45653,-55.61459 3.24921,-6.99149 6.45921,-13.9647 9.68087,-20.93489 m -20.6225,55.23761 c 5.69088,-12.13506 9.9896,-23.91788 13.40471,-35.58939 4.18121,-14.28969 7.06828,-28.52439 9.49988,-43.01163 M 799.08175,244.582 c 1.58214,-4.51515 3.34344,-9.53527 4.92558,-14.05042 8.43708,-24.07697 13.06996,-37.45634 21.40413,-61.57168 -0.31655,0.91598 2.37393,-6.86766 2.05737,-5.95169 m -20.22056,51.26804 c 5.89293,-18.53157 12.17569,-38.06052 18.26053,-55.63615 1.55524,-4.4922 3.12537,-8.93925 4.71118,-13.31933 m -15.21063,57.96379 c 3.69505,-11.94315 6.8956,-22.98218 9.96316,-33.34757 4.43429,-14.98361 8.62289,-28.66868 13.66932,-41.84397 m -18.37635,54.24258 c -1.72266,6.64577 5.36105,-20.65891 3.63839,-14.01314 5.17828,-19.86741 10.2756,-38.9274 15.92788,-56.78045 -6e-5,1.8e-4 0.12006,-0.3788 0.12,-0.37861 m -17.85784,42.92893 c 4.16828,-16.86779 9.47881,-32.98785 16.06878,-48.20908 1.51752,-3.50511 3.10613,-6.970133 4.7686,-10.393423 m -3.96995,28.920713 c 2.20409,-7.1749 4.42781,-14.45951 6.74995,-21.80136 5.90722,-18.676764 12.24869,-37.058794 20.07832,-54.035939 0.25766,-0.558692 0.51672,-1.115367 0.77719,-1.669976 m -30.65932,66.213055 c 0.49586,-1.2271 0.99185,-2.45067 1.489,-3.67135 7.80461,-19.162809 15.85244,-37.478904 27.2857,-55.452669 1.70306,-2.677315 3.48132,-5.346855 5.345,-8.009542 m -21.89991,40.245222 c 5.31757,-12.020426 11.32709,-23.113551 18.52941,-33.44366 4.43138,-6.355819 9.32119,-12.432727 14.79415,-18.269511 m -24.22242,32.463854 c 1.73236,-3.058092 3.52963,-6.044606 5.39896,-8.959844 10.70999,-16.702295 23.81219,-31.093149 40.53072,-43.070451 0.93448,-0.669468 1.88014,-1.331341 2.83722,-1.985644 M 870.6777,45.927843 c 8.59244,-12.273976 20.06844,-24.003352 34.40241,-34.527692 8.82412,-6.4788811 18.74369,-12.5055477 29.58151,-17.798666 m -42.48026,44.110281 c 6.06597,-7.010527 13.10992,-13.989486 21.21735,-21.033772 8.58042,-7.455252 18.16422,-14.8243073 28.95171,-22.4170303 M 909.76149,9.7278316 c 0.71086,-0.5781496 1.43129,-1.154106 2.16133,-1.7277287 16.8722,-13.2571364 39.85329,-25.9316519 67.6485,-34.4029909 1.43882,-0.438517 2.89129,-0.865737 4.35667,-1.280762 M 927.17961,0.49578612 c 14.2204,-9.79462142 31.39893,-18.85671112 50.86274,-26.46310812 4.81118,-1.880194 9.74929,-3.665319 14.77559,-5.33251 m -45.13471,14.36484 c 9.54573,-5.162726 20.21859,-9.956316 31.74849,-14.069996 11.23685,-4.009127 23.45738,-7.427678 35.94798,-9.729677 m -49.72175,18.078656 c 4.05777,-1.935713 8.21351,-3.811388 12.48967,-5.643646 18.74251,-8.030828 37.38978,-14.272299 60.99498,-21.981505 m -55.12377,22.499632 c 15.66468,-5.247717 36.46927,-11.674147 58.53327,-17.344652 m -34.7681,1.02966 c 17.8631,-4.845498 41.7118,-10.036164 68.6025,-13.674398 -2.4015,0.845865 -4.7882,1.701021 -7.1647,2.568529 m -39.0702,13.852822 c 12.944,-3.582954 27.0732,-6.716883 43.2717,-9.878189 -8.3951,2.256657 -16.5232,4.423147 -24.4273,6.408314 m 14.085,-12.199279 c 5.6157,-1.051252 11.2208,-2.055195 16.7835,-2.998636 -16.7312,4.763171 -34.8406,9.630136 -53.8925,14.740441 m 45.2575,-7.611853 c -17.7188,5.873471 -35.0062,11.331902 -51.8119,17.413124 -1.9104,-0.620819 -3.7681,-1.085687 -5.5766,-1.398893 m 24.6727,-18.223903 c -8.6212,2.411351 -17.4942,5.080297 -26.5108,7.96494 -5.3702,-1.75047 -10.4454,-2.38535 -15.21102,-2.011783 -4.77179,0.374047 -9.26546,1.759805 -13.52512,4.08819 -4.26077,2.328993 -8.29946,5.607524 -12.16296,9.77814 -0.30673,0.33112 -0.61237,0.667874 -0.91693,1.010229 m 38.93753,-7.585601 c -2.614,-0.676227 -5.1655,-1.016907 -7.645,-1.045507 -4.49554,-0.05185 -8.7654,0.920574 -12.8264,2.798959 -4.06356,1.879565 -7.92563,4.668687 -11.63522,8.264778 -3.7071,3.593682 -7.26873,8.000853 -10.70423,13.092661 -2.40035,3.55759 -4.7455,7.459588 -7.02118,11.6392589 M 977.3359,-35.913501 c -2.57139,1.723689 -5.04904,3.832584 -7.44535,6.305198 -3.63305,3.748747 -7.08826,8.343361 -10.39663,13.708858 -5.87127,9.5219765 -11.38635,21.6559092 -16.50566,35.887975 m 13.21067,-39.573024 c 0,1e-6 -0.0104,0.01744 -0.0104,0.01744 -6.01159,10.126628 -12.39154,23.768976 -18.58285,38.712102 -4.49193,10.841555 -9.30636,23.416819 -13.58347,36.111168 m 23.7584,-52.7222791 c -3.27433,6.0307249 -6.41333,12.7946761 -9.51646,20.2994031 -4.64691,11.238271 -9.00527,23.615337 -13.65923,37.412689 M 951.48611,28.90931 c -5.73534,15.295481 -11.95667,30.967273 -20.16267,49.466526 -2.76125,6.224843 -5.67687,12.611068 -8.80073,19.272965 m 16.1526,-53.996582 c -2.77247,7.736143 -5.83805,15.733549 -9.31128,24.066507 -4.75887,11.417426 -10.20697,23.282336 -16.61041,35.831604 m 10.56629,-31.571808 c -6.76857,17.281445 -13.63132,37.180848 -21.06516,57.452398 0.004,-0.0113 -0.59073,1.60807 -0.58659,1.59678 m 6.63122,-25.28155 c -3.63908,10.1343 -7.81214,21.15212 -12.51908,32.8811 -6.06859,15.122 -12.94787,31.23175 -20.43892,47.55249 m 35.87567,-62.65391 c -1.91644,4.20324 -3.88887,8.5249 -5.89558,12.8438 -6.79377,14.62177 -14.38133,30.10042 -23.5508,44.78504 m 7.28122,-34.98332 c -7.64258,16.33666 -15.91099,34.38619 -25.18678,51.07713 -3.01043,5.417 -6.16816,10.77044 -9.5078,15.98611 M 890.5737,171.6778 c -4.73375,11.18718 -9.75506,22.19827 -15.20737,33.34329 -5.20027,10.62985 -10.7615,21.31838 -16.81831,32.37962 m 9.70077,-45.75192 c -1.27215,2.61993 -2.56035,5.26664 -3.86262,7.93226 -9.01026,18.44321 -18.84655,38.10886 -29.32775,57.26184 m 32.17973,-41.37435 c -10.15437,21.38029 -22.46102,41.4101 -36.12662,61.38717 m 23.75289,-36.9312 c -14.04307,22.99895 -28.19604,43.70256 -45.21112,62.01675 m 30.99156,-46.24097 c -11.36874,17.61056 -22.6896,36.35622 -34.41737,56.16759 m 18.76937,-35.56025 c -12.11946,17.79215 -25.65384,32.85138 -41.25459,46.69246 -0.92645,0.82195 -1.87422,1.64158 -2.8434,2.45947 m 21.45924,-27.76195 c -7.71362,9.13877 -15.37307,17.63834 -23.1164,25.38549 -6.43652,6.4397 -13.80007,12.52795 -21.83074,18.04372 m 33.87539,-31.98059 c -2.30448,2.1228 -4.60959,4.27052 -6.92762,6.44151 -12.05712,11.29222 -29.30334,25.89954 -47.50154,38.82369 m 35.85326,-23.4385 c -10.75796,8.22479 -24.05961,17.76082 -37.82746,26.63211 -5.2239,3.36601 -10.70705,6.76151 -16.39129,10.08934 m 40.62079,-13.70806 c -4.7926,3.25713 -9.94135,6.66892 -15.32279,10.14954 -15.61168,10.09733 -34.88085,21.8772 -54.34573,32.45965 m 44.62336,-28.39612 c -16.81039,10.31756 -37.006,21.75563 -58.92714,32.61215 m 38.629,-18.12735 c -13.28815,8.24879 -26.76066,15.75232 -41.17097,23.41621 -10.113,5.37843 -20.18272,10.57176 -31.08271,16.25295 m 47.39013,-30.73363 c -7.00122,3.76475 -14.09334,7.37688 -21.29316,10.82823 -12.67209,6.07458 -25.6717,11.64889 -39.23916,16.74746 m 45.75046,-8.01894 c -24.36138,13.33111 -49.08911,23.03008 -77.08034,32.64052 -1.20588,0.41402 -2.41643,0.82745 -3.63192,1.24062 m 55.02827,-34.9135 c -19.24066,8.25449 -36.80911,17.85931 -55.20645,28.37391 M 624.8957,428.1773 c -10.41971,5.16828 -20.5607,10.11295 -30.40506,14.95944 -13.52115,6.65661 -26.3987,13.08777 -38.82066,19.73289 m 52.27715,-26.50094 c -3.74858,1.61352 -7.62426,3.30006 -11.62455,5.05122 -14.76427,6.46317 -31.12824,13.76631 -48.05309,21.0583 m 33.40469,-18.68549 c -20.5115,8.07152 -42.08723,17.20278 -64.73686,25.40385 m 40.53101,-17.91071 c -15.23462,6.8713 -30.17342,13.10139 -45.4974,19.20882 -6.81803,2.71735 -13.70959,5.40928 -20.70898,8.11128 m 45.07248,-10.168 c 0.66105,-0.28189 -20.03292,8.5223 -19.37187,8.24041 -16.69703,7.08229 -32.36997,13.67016 -48.7458,20.46551 m 43.26105,-26.30635 c -19.03258,8.55923 -40.46712,17.39684 -60.06977,25.56769 m 37.64271,-5.06501 c -15.74931,5.89694 -31.58717,13.05632 -46.27758,20.01631 -3.8429,1.82067 -7.65489,3.65079 -11.38098,5.45162 m 29.11141,-25.75062 c -7.51693,2.95469 -14.9603,6.23279 -22.27913,9.72515 -18.48385,8.82002 -36.7173,19.27746 -53.16743,29.46217 m 58.73968,-24.90642 c -0.62009,0.30967 -1.24253,0.61742 -1.86717,0.92331 -21.42277,10.49083 -47.98201,19.86502 -69.55075,27.84946 m 46.20677,-18.65367 c -16.00055,7.16163 -31.37013,14.22668 -45.53559,21.13418 -3.52932,1.72101 -6.97475,3.42779 -10.3286,5.11965 m 32.53923,-13.57386 c -6.88293,3.30949 -13.61345,6.31601 -20.06919,9.06498 -9.71891,4.13848 -18.9608,7.75417 -27.21145,10.9429 -4.50659,1.74172 -8.63493,3.32422 -12.61388,4.8779 m 36.881,-9.3493 c -8.74555,4.47831 -16.97243,8.51802 -24.20728,12.08911 -8.3512,4.12212 -15.58511,7.72049 -22.00656,11.19549 -5.98238,3.2374 -11.05993,6.26356 -15.2085,9.22146 m 34.29617,-29.36194 c -0.37072,0.20739 -0.74048,0.41498 -1.10925,0.62276 -7.95386,4.48167 -15.36889,9.01162 -21.98391,13.52972 -6.60655,4.51231 -12.3286,8.95426 -16.93832,13.24898 -2.30236,2.14504 -4.32193,4.24843 -6.03462,6.30194 -1.71254,2.05331 -3.11749,4.05581 -4.19445,6.00269 -4.3561,-0.94253 -8.73055,-1.8405 -13.11132,-2.69494 m 42.7964,-20.05253 c 2.24321,-1.64382 -4.26453,3.1254 -2.02132,1.48158 -6.14094,4.50454 -11.39442,8.41892 -15.81627,12.25182 -2.18004,1.88967 -4.09505,3.70766 -5.72659,5.4805 -1.63052,1.77172 -2.96663,3.48639 -3.98899,5.15939 -13.4635,-4.89313 -27.37803,-10.2159 -41.20201,-15.56519 m 55.69899,-1.34146 c -2.085,1.93032 -3.8906,3.82443 -5.40534,5.67737 -1.56544,1.91498 -2.82186,3.78801 -3.75402,5.6129 -15.79075,-4.70865 -31.14532,-8.96147 -46.18141,-12.28881 m 26.63819,13.08344 c -26.25726,-8.3668 -51.94121,-17.53938 -77.55367,-26.27259 m 67.04469,18.55074 c -24.93007,-7.79697 -50.61808,-16.51989 -77.53101,-24.82424 m 56.98555,15.34446 c -25.17179,-9.33517 -51.33282,-18.03207 -80.02441,-28.7347 0,0 0,0 0,0 0.002,-5.7e-4 1.49391,-0.4787 4.24585,-1.45959 m 45.57305,22.27337 c -17.8517,-5.5189 -35.25271,-10.71316 -52.12249,-14.89976 0,0 0,0 0,0 0.005,-3.6e-4 9.09194,-0.90267 25.5914,-1.56064 m 5.27506,13.60976 c -10.48262,-3.28576 -21.39887,-7.14737 -32.49308,-11.37673 0,0 0,0 0,0 0.006,-10e-4 15.39729,-3.4644 41.36537,-11.37824 m -28.8349,18.20896 c -3.65747,-1.40471 -7.30075,-2.78264 -10.9311,-4.14364 0,0 0,0 0,0 0.007,-0.002 21.112,-3.85498 56.32415,-12.86759 m -45.43611,11.55647 c 12.62592,-2.39326 33.88615,-6.40641 56.63288,-10.24919 4.61424,-0.77952 9.39007,-1.56988 14.33896,-2.36817 m -40.86846,1.76734 c 10.31386,-2.57464 19.80669,-4.75583 33.38305,-7.88597 11.74136,-2.70706 26.34615,-6.08077 40.54752,-9.84521 m -47.47758,19.87189 c 2.89384,-0.60873 5.879,-1.24423 8.9492,-1.90634 17.59242,-3.79394 38.08534,-8.48717 59.29218,-13.82454 m -41.21025,3.75731 c 23.38776,-3.86768 43.82352,-9.44294 68.72298,-15.96084 m -50.21805,15.89052 c 20.11446,-4.31396 39.47144,-9.33837 59.356,-15.3623 m -35.22109,7.49739 c 19.56444,-5.05285 38.1212,-9.12492 58.68432,-13.57982 m -32.39708,6.34694 c 19.51018,-4.07553 39.56528,-9.45754 60.42676,-15.25093 m -36.93974,2.17126 c 15.39901,-3.43142 31.40694,-7.22393 47.3078,-10.72647 5.94079,-1.30859 11.87134,-2.5764 17.7388,-3.76282 m -32.58857,6.84658 c 7.61208,-2.03943 15.3012,-3.97917 23.02878,-5.81296 11.36309,-2.69653 22.71766,-5.14219 33.92,-7.32418 m -34.50545,17.97579 c 21.14209,-5.98779 42.48317,-11.87521 64.02387,-18.07562 m -42.83909,5.03932 c 20.52418,-4.59339 39.26265,-11.74433 57.63437,-19.96873 m -29.26048,15.03488 c 13.95457,-3.78511 27.03846,-7.89987 39.43277,-12.11958 7.97858,-2.71636 15.6808,-5.47957 23.10893,-8.21456 m -36.24464,10.95915 c 5.60181,-1.48919 11.11782,-3.03172 16.56678,-4.60312 17.632,-5.08481 34.58174,-10.46395 51.5041,-15.38791 m -48.57815,10.65165 c 22.56992,-7.7827 45.49226,-15.49785 68.53325,-23.9074 m -44.64406,15.14652 c 20.80371,-7.97899 39.85684,-15.87929 58.56149,-25.34123 m -27.82911,24.10978 c 11.13932,-4.83116 22.56528,-9.48409 33.22063,-13.92613 15.1341,-6.30915 29.22326,-12.40292 42.94481,-19.44979 m -54.3706,15.18387 c 4.73385,-1.89298 9.32694,-3.75444 13.79392,-5.59505 17.22252,-7.09653 32.51594,-13.86193 46.51299,-20.80234 m -27.36888,15.07127 c 24.91043,-11.31819 45.28934,-20.06752 65.47213,-30.53266 m -53.99216,29.68916 c 16.10316,-7.32854 31.31491,-16.06519 45.3206,-25.76264 6.26218,-4.3359 12.28619,-8.86616 18.03516,-13.54687 m -36.85329,27.44651 c 7.5995,-4.09416 14.67757,-8.2181 21.28564,-12.44907 10.95279,-7.0128 20.4977,-14.24762 28.73576,-21.88628 1.34707,-1.24906 2.65745,-2.50737 3.93122,-3.77521 m -25.70501,16.1245 c 10.60467,-6.35 20.46342,-12.41364 29.4636,-18.46546 9.39535,-6.31754 17.64952,-12.48697 24.58819,-18.7182 1.42621,-1.28079 2.82565,-2.55701 4.19901,-3.82952 m -40.1991,34.25614 c 2.87027,-1.92422 5.70501,-3.90082 8.4814,-5.91767 9.06434,-6.58458 17.49067,-13.58625 24.68906,-20.7337 7.40416,-7.35176 14.30717,-14.77636 20.62282,-22.1624 m -34.30218,32.00006 c 4.87284,-3.75891 9.3269,-7.65649 13.30009,-11.61402 15.71982,-15.65783 28.33228,-32.26152 38.06985,-47.26197 m -31.99416,44.95591 c 17.23094,-18.23638 31.03852,-39.40393 40.79085,-60.72778 1.19653,-2.61627 2.3338,-5.23767 3.4118,-7.86103 m -38.94689,55.01106 c 12.24744,-13.80932 22.41505,-28.45286 31.37748,-43.14845 2.21764,-3.63625 4.37238,-7.29385 6.47591,-10.96299 m -18.1177,35.41447 c 5.21168,-7.19453 9.76286,-14.33283 13.8239,-21.4397 7.13738,-12.4905 12.85628,-25.05527 17.92323,-37.73817 m -12.86738,39.01782 c 11.52254,-20.98105 19.45456,-39.99635 25.71432,-59.02589 1.40821,-4.2809 2.72808,-8.55253 3.97942,-12.83031 m -17.8133,42.20689 c 5.73149,-14.49374 10.72615,-26.9589 15.60971,-40.33092 3.82743,-10.48013 7.26502,-20.66795 10.31117,-31.00501 m -27.76368,43.64579 c 2.39694,-6.40874 4.62436,-12.57455 6.72288,-18.58543 7.09997,-20.33672 12.48081,-38.20267 17.51152,-55.90415 10e-6,-2e-5 0.0229,-0.0807 0.0229,-0.0807 m -7.72537,59.77855 c 7.89646,-21.12759 12.39677,-40.2705 16.21356,-58.43035 0.81963,-3.89968 1.61167,-7.77483 2.39668,-11.61236 m -20.9077,58.25097 c 3.24601,-13.12343 7.28814,-25.35499 11.97604,-36.94855 5.10401,-12.62264 11.05718,-24.69279 17.7207,-36.43289 m -13.0219,48.87068 c 1.62058,-5.19654 3.1692,-10.2817 4.67743,-15.23492 5.07768,-16.67577 9.73269,-31.95851 15.52496,-46.44958 m -16.78723,32.39174 c 5.56751,-15.86563 10.05607,-32.46136 15.27368,-49.094 3.24755,-10.352511 6.76294,-20.697883 10.9651,-30.945574 m -17.29878,60.527944 c 2.7921,-9.30869 5.50318,-18.35939 8.32394,-27.30467 5.79399,-18.37412 11.90869,-35.84439 19.9217,-53.848168 m -28.89485,64.190958 c 0.74025,-2.09504 1.49774,-4.20811 2.2745,-6.33672 6.21287,-17.0256 13.59327,-34.865603 23.18002,-52.424119 m -15.09893,30.159292 c 5.31218,-12.554862 11.52299,-23.939287 19.10363,-34.407751 4.29834,-5.935765 9.04492,-11.588061 14.33724,-17.007428 m -21.41615,28.917503 c 1.82643,-3.179764 3.71848,-6.390938 5.68739,-9.635015 10.34451,-17.044113 22.18416,-33.957379 36.87265,-51.5275089 1.05558,-1.2626645 2.1219,-2.5239575 3.19916,-3.7840909 M 872.41764,40.987107 c 10.56916,-14.190538 21.44291,-25.887038 33.85441,-35.3926641 4.03283,-3.0886324 8.22393,-5.94304171 12.62777,-8.5849807 M 890.88118,26.010383 c 6.34321,-6.393008 13.00588,-12.584144 20.196,-18.6631013 9.2925,-7.85642828 19.43542,-15.4988976 30.99004,-23.2350727 M 911.477,13.01963 C 926.15778,1.3901209 942.28749,-9.7736111 961.55548,-22.3028 M 925.00379,0.92969928 c 12.745,-7.17030908 27.58198,-14.99851528 43.71082,-22.66727328 4.63873,-2.205571 9.45031,-4.429036 14.39406,-6.634233 m -33.48923,10.249062 c 6.5813,-2.657616 13.47594,-5.296968 20.52166,-7.758603 16.30075,-5.695159 35.2013,-11.09264 54.9161,-13.221925 m -45.92653,3.179307 c -9.1e-4,3.36e-4 1.02189,-0.376812 1.02098,-0.376476 20.75355,-7.639437 47.49275,-16.673413 71.94195,-22.773993 m -63.94357,23.387689 c 21.78717,-8.566288 45.46207,-14.428672 78.85487,-22.895069 m -40.3106,19.880021 c 18.8699,-6.047962 36.9218,-10.438289 59.1984,-15.871138 m -47.3624,11.406089 c 10.3182,-2.874108 20.6944,-5.335035 31.6734,-7.74925 -11.7633,2.783829 -23.7666,5.520123 -36.0261,7.906324 m 33.9273,-12.082879 c 2.1595,-0.474481 4.3504,-0.923253 6.5739,-1.34679 -20.8076,5.558427 -40.6746,12.836417 -60.1021,20.628701 -1.1471,-0.334539 -2.2762,-0.614181 -3.3874,-0.840005 m 54.2277,-19.352647 c -14.3873,4.653235 -29.9404,9.4735 -46.0097,14.783533 -5.686,-1.589844 -11.0444,-2.09642 -16.0862,-1.597373 -0.3624,0.03587 -0.7232,0.07693 -1.0825,0.123175 M 478.97341,473.03663 652.37702,407.95416 M 924.74592,-14.181311 1082.506,-63.35145 M 812.01814,182.62109 873.62512,22.33088 M 888.95035,192.79273 759.55543,369.41372 M 139.40396,552.29079 330.39472,511.97378"
     id="path6"
     transform="matrix(0.99769485,-0.06334026,0.06786001,0.93124438,-56.743255,56.032145)"
     clip-path="url(#clipPath16)" />
  <path
     style="display:inline;opacity:1;fill:#70ccc0;fill-opacity:1;stroke-width:11.7808;stroke-dasharray:4.79244, 2.39622, 1.19811, 2.39622"
     d="m 1009.8937,-1.56161 c 0,0 -0.3706,14.157318 -27.04046,25.183556 -24.45103,10.108899 -24.67908,-16.887114 -64.78854,-11.8429 -37.88689,4.764701 -37.08641,116.621264 -70.98218,174.805304 -15.84851,27.20487 -23.84757,9.97778 -29.60592,-9.84353 -5.76318,-19.83795 -9.29976,-42.29968 -16.11074,-25.64734 -11.42143,27.92453 -11.28254,117.12139 -34.06693,140.41648 -20.55786,21.01866 -20.51206,-34.65929 -56.51664,6.7565 -33.72902,38.79824 -33.85609,34.62993 -69.18309,61.01408 -33.17145,24.77427 -33.0679,-7.84742 -77.44856,15.21063 -42.07394,21.85959 -42.18139,113.37781 -42.18139,113.37781 0,0 1.0645,-84.3326 42.1539,-105.67781 38.9261,-20.22143 38.81038,13.94294 77.45151,-14.91063 36.33865,-27.13428 36.46065,-23.66568 69.19976,-61.31408 30.55801,-35.14024 30.4994,20.13813 56.5181,-6.4565 23.79157,-24.3182 23.66561,-115.21304 34.10335,-140.71648 4.11782,-10.06145 6.29104,14.81593 12.04041,34.23666 5.74489,19.40557 15.0961,33.41911 33.66788,1.55421 34.90694,-59.89227 34.13723,-170.466227 71.0264,-175.105304 34.66653,-4.359563 34.90218,24.497324 64.7879,12.1429 C 1010.5909,20.18247 1009.8937,-1.56161 1009.8937,-1.56161 Z M 522.02676,502.68198 c 0,0 -0.95695,34.74532 -15.63801,34.74532 -6.22802,0 -9.09351,-28.03573 -12.89652,-55.34924 -3.80291,-27.31282 -8.53841,-53.90553 -18.30915,-51.01598 -8.65412,2.55933 -13.13945,32.88955 -18.94726,62.57994 -5.80782,29.69039 -12.93568,58.74094 -26.64467,58.74094 -12.59649,0 -18.68554,-22.31976 -24.28992,-44.16843 -5.60438,-21.84866 -10.72267,-43.22622 -21.24747,-41.34181 -18.82201,3.36999 -19.51289,88.92868 -45.70168,88.92868 -23.96379,0 -23.34988,-74.1096 -66.05856,-64.73207 C 231.83624,499.95251 231.93426,545 231.93426,545 c 0,0 0.83694,-37.56589 40.30176,-46.23067 37.25199,-8.17894 36.62518,65.03207 66.03897,65.03207 27.18879,0 27.90584,-86.03795 45.7275,-89.22868 7.79697,-1.39594 11.54633,20.05662 17.1451,41.85816 5.59877,21.80155 13.04589,43.95208 28.36738,43.95208 14.20899,0 21.59603,-29.19961 27.41238,-59.00202 5.81636,-29.80241 10.05972,-60.20763 18.21368,-62.61886 7.03961,-2.0817 10.40678,24.58461 14.20299,51.77134 3.79622,27.18673 8.01953,54.89388 16.97256,54.89388 15.6817,0 15.71018,-42.74532 15.71018,-42.74532 z"
     id="path5"
     transform="matrix(0.99069163,-0.1270588,0.13612529,0.92470759,-71.585583,97.433546)"
     clip-path="url(#clipPath15)"
     sodipodi:nodetypes="cssssssssscsssssssssccssssssssscsssssssssc" />
</svg>
