<?xml version="1.0" encoding="UTF-8" standalone="no"?>
<!-- Generator: Adobe Illustrator 19.0.0, SVG Export Plug-In . SVG Version: 6.00 Build 0)  -->

<svg
   version="1.1"
   id="Layer_1"
   x="0px"
   y="0px"
   viewBox="0 0 499.6026 311.08517"
   xml:space="preserve"
   sodipodi:docname="city-guilds-logo.svg"
   width="100%"
   preserveAspectRatio="xMidYMid meet"
   inkscape:version="1.3 (0e150ed6c4, 2023-07-21)"
   xmlns:inkscape="https://www.inkscape.org/namespaces/inkscape"
   xmlns:sodipodi="https://sodipodi.sourceforge.net/DTD/sodipodi-0.dtd"
   xmlns="https://www.w3.org/2000/svg"
   xmlns:svg="https://www.w3.org/2000/svg"><defs
   id="defs14" /><sodipodi:namedview
   id="namedview14"
   pagecolor="#ffffff"
   bordercolor="#000000"
   borderopacity="0.25"
   inkscape:showpageshadow="2"
   inkscape:pageopacity="0.0"
   inkscape:pagecheckerboard="0"
   inkscape:deskcolor="#d1d1d1"
   showgrid="false"
   inkscape:zoom="2.3118687"
   inkscape:cx="241.14691"
   inkscape:cy="155.93446"
   inkscape:window-width="3840"
   inkscape:window-height="2066"
   inkscape:window-x="2869"
   inkscape:window-y="-11"
   inkscape:window-maximized="1"
   inkscape:current-layer="Layer_1" />&#10;<style
   type="text/css"
   id="style1">&#10;	.st0{fill:#FFFFFF;}&#10;	.st1{fill:#ED1C24;}&#10;</style>&#10;<path
   id="path3"
   d="M 114.70299,0.76354707 V 22.562377 h 21.69922 V 0.76354707 Z M 57.902214,3.5623771 c -14.89999,-0.3 -30.598838,5.20157 -40.298829,17.1015599 -10.799989,13.09999 -13.9,30.80002 -14,47.5 0.1,16.59998 2.598448,34.298453 12.898438,47.898443 8.699991,11.69999 23.600791,17.20039 37.800781,16.90039 8.59999,0 17.2004,-1.3 24.90039,-5 7.79999,-3.7 14.20001,-9.59884 19.5,-16.29883 l 1.09961,-1.40039 -12.80078,-13.800783 -1.5,1.59961 c -4.3,4.499993 -8.89844,8.801173 -14.39844,11.701173 -4.59999,2.4 -9.60157,3.40039 -14.60156,3.40039 -8.59999,0.1 -17.29962,-3.70001 -22.099611,-11 -6.399993,-9.799993 -7.798828,-22.001573 -7.798828,-33.601563 0,-11.79999 1.399616,-24.29923 8.09961,-34.19922 5.199999,-7.69999 14.400399,-11.60039 23.400389,-11.40039 5,0 10.19922,0.6 14.69922,3 5.19999,2.8 9.29961,7.30079 13.09961,11.80078 l 1.30078,1.59961 13.999996,-13 -1.300776,-1.40039 c -5,-6.59999 -11.00001,-12.79922 -18.5,-16.6992199 -7.19999,-3.6 -15.40001,-4.70117 -23.5,-4.70117 z m 124.800776,2.10156 -20.09961,4.09961 -1,23.9003899 H 149.3026 v 17.29883 h 12.19922 v 56.099613 c 0,6.59999 1.20157,13.70157 6.10156,18.60156 4.6,4.8 11.59962,6.29883 18.09961,6.29883 9.19999,0.3 18.10001,-3.69883 25,-9.79883 l 1,-1 -6.90039,-14.60156 -1.80078,1.40039 c -4,2.6 -8.09962,5.90039 -13.09961,5.90039 -3.2,0.1 -6.10039,-2 -6.90039,-5 -0.6,-2.7 -0.69922,-5.60039 -0.69922,-8.40039 V 50.962767 h 25.30078 v -17.29883 h -25.20117 z m -67.5,27.9999999 V 130.26355 H 135.8026 V 33.663937 Z m 163.59961,0 -20.40039,56.79883 c -1.2,2.8 -2.1,5.69961 -3,8.59961 v 0.20117 c -0.4,-1.1 -0.69961,-2.20039 -1.09961,-3.40039 -0.4,-1.1 -0.79961,-2.30078 -1.09961,-3.30078 -0.3,-0.7 -0.60117,-1.3 -0.70117,-2 L 232.70299,33.763547 H 209.8026 l 34.59961,91.699223 -0.0996,0.0996 c -1.4,3.79999 -3.09922,7.50117 -4.69922,11.20117 -2.3,4.8 -4.50117,9.6004 -6.70117,14.40039 -1.9,4.1 -3.90039,8.09922 -5.90039,12.19922 -0.5,1 -1,1.90078 -1.5,2.80078 l -1,2.19922 H 247.203 l 8.40039,-18.59961 c 2.8,-6.29999 5.29844,-12.5004 7.89844,-18.90039 1.1,-2.7 2.20078,-5.39922 3.30078,-8.19922 0.9,-2.1 1.8,-4.3 2.5,-6.5 l 31.80078,-82.500003 z m 89,146.199223 v 34 c 0,1.7 -3.9e-4,3.39961 0.0996,5.09961 -2.4,-2.3 -5.30039,-4.4 -8.40039,-6 -5.5,-2.7 -11.79844,-3.69922 -17.89844,-3.69922 -11.99999,-0.2 -24.30157,4.59884 -31.60156,13.79883 -8.69999,10.59999 -11.09961,24.50157 -11.09961,37.60156 0,3 7.8e-4,5.99844 0.30078,8.89844 1.1,10.59999 3.89884,21.6004 11.29883,29.90039 6.29999,7.09999 16.2004,10.79961 25.90039,10.59961 6.89999,0.1 13.90079,-1.39844 19.80078,-4.89844 4.9,-2.9 8.90039,-6.80157 12.40039,-11.10156 0.1,4.19999 0.5,8.50117 1,12.70117 l 0.29883,1.79883 h 21.30078 v -2.79883 c -0.5,-3.4 -0.9,-6.80117 -1,-10.20117 -0.1,-1.3 -0.10117,-2.7 -0.20117,-4 0,-0.8 -0.0996,-1.59844 -0.0996,-2.39844 V 179.86316 Z m -104.40039,0.0996 v 128.59961 h 20.80078 v -128.5996 z m -40.69922,0.0996 v 20.90039 h 21.90039 v -20.90037 z m -164.201166,1.3008 c -15.79999,-0.1 -32.399621,5.19923 -43.099611,17.19922 -11.499988,12.79999 -15.50039003,30.70158 -15.40039003,47.60156 0,16.89998 3.40040203,34.89845 14.90039003,47.89844 10.49999,12.19999 27.100801,17.3 42.800781,17 15.79998,0.4 31.20001,-4.50001 44.999996,-12 l 1.09961,-0.59961 v -49 H 81.802604 v 37.5 c -3.3,1.8 -6.8,3.6 -10.5,4.5 -3.8,1 -7.69961,1.09961 -11.59961,1.09961 -9.99999,0.2 -20.49961,-3.30001 -26.599609,-11.5 -7.399992,-10.09999 -8.9,-23.19845 -9,-35.39844 0.1,-11.79999 1.700008,-24.30118 9,-33.70117 6.199999,-7.99999 16.399229,-11.50039 26.199219,-11.40039 5.49999,0 11,0.5 16,3 5.69999,2.8 10.19961,7.50118 14.59961,12.20117 l 1.30078,1.40039 14.298826,-13.20117 -1.09961,-1.19922 c -5.399996,-6.79999 -12.000396,-12.70078 -19.900386,-16.30078 -8.09999,-3.8 -17.20001,-5.09961 -26,-5.09961 z m 386.499996,27.5 c -9.39999,0 -19.20001,2.30001 -26.5,8.5 -6.69999,5.59999 -10.09844,14.60079 -9.89844,23.30078 -0.2,8.39999 3.29845,17.39844 10.89844,21.89844 3.1,1.9 6.7,3.40156 10.5,4.10156 3.89999,0.6 7.70157,1 11.60156,1.5 3.8,0.5 7.9,1.29883 11,3.79883 2.2,2 2.99844,5.20117 2.89844,8.20117 0.1,3.5 -1.39922,7.09922 -4.19922,9.19922 -3.4,2.7 -8.00079,3.59961 -12.30078,3.59961 -8.99999,0.1 -17.49845,-3.70001 -24.89844,-8.5 l -1.90039,-1.29883 -7.59961,17.09961 1.5,0.90039 c 9.99999,6.2 21.69845,9.59844 33.39844,9.39844 9.69999,0 19.80079,-2.09962 27.30078,-8.59961 6.99999,-5.89999 10.19961,-15.19962 10.09961,-24.09961 0.1,-7.29999 -1.99962,-15.09961 -7.59961,-20.09961 -6.39999,-5.69999 -15.20001,-7.70078 -23.5,-8.80078 -2.5,-0.2 -4.90078,-0.40039 -7.30078,-0.90039 h -0.0996 -0.19922 c -1.8,-0.1 -3.5,-0.7 -5,-1.5 -2.6,-1.3 -3.80117,-4.2 -3.70117,-7 -0.1,-3.2 1.20039,-6.79844 3.90039,-8.89844 3.5,-2.6 7.89961,-3.20078 12.09961,-3.30078 8.29999,-0.3 16.30157,3.1 23.10156,7.5 l 2,1.09961 6.79883,-17.69922 -1.5,-1.09961 c -9.1,-5.59999 -20.10041,-8.40078 -30.9004,-8.30078 z m -221.69922,3.09961 v 96.59961 h 20.59961 v -96.59961 z m -98.5,0.0996 v 68.5 c -0.1,7.89999 1.8004,16.30079 7.40039,22.30078 5.2,5.69999 13.09923,8.1 20.69922,8 12.59999,0.5 23.50079,-6.69923 31.30078,-16.19922 v 0.5 c 0.1,3.9 0.2,7.69961 0.5,11.59961 l 0.19922,1.79883 h 20.90039 l -0.19922,-2 c -0.7,-5.9 -1.10117,-11.79884 -1.20117,-17.79883 l 0.20117,-76.59961 H 183.3026 v 57.5 c -5.69999,8.29999 -11.79962,17.8 -21.59961,21.5 -1.5,0.5 -3.20039,0.69922 -4.90039,0.69922 -3,0.1 -6.2,-0.99961 -8,-3.59961 -2.5,-3.4 -2.80039,-7.80078 -2.90039,-11.80078 v -64.40038 z m 219.69922,14.80079 c 10.69999,0 19.4,8.40079 22,17.80078 1.6,5.2 2,10.69962 2,16.09961 0,2.6 -0.2,5.1 -0.5,7.5 -5.3,9.09999 -11.90001,18.79922 -22.5,22.69922 -1.9,0.6 -3.69961,0.90078 -5.59961,0.80078 -5.4,0.2 -10.69961,-2.70079 -13.09961,-7.30078 -4.2,-7.39999 -4.49961,-15.99923 -4.59961,-24.19922 0.1,-8.59999 1.10001,-17.69962 6,-25.09961 3.4,-5.29999 9.89884,-8.40078 16.29883,-8.30078 z" />&#10;<path
   class="st1"
   d="m 395.0026,78.163157 c -0.1,0.9 -3.7,0 -5.7,0.6 3.1,3.6 5.8,7 8.1,10.9 -3.5,-0.4 -8.4,-3.6 -13.6,-2.9 -0.6,0.2 0.5,4 1.2,6.8 1,4 -3.5,-1.3 -5.2,-2.3 -6.8,-4.4 -20.6,-6.7 -19.7,-19.1 -3.7,-2.3 -7.5,-4.5 -11.4,-6.7 -10.4,5.4 -20.4,12.8 -21.4,24.7 -1.5,14.400003 11.9,29.300003 31.5,25.300003 6.7,-1.3 12.1,-5.5 18.1,-8.6 6.1,-3.3 13.2,-5.7 20,-6.4 5.9,-0.600003 21,0.9 20.9,-5.100003 -0.1,-6.2 -8.3,-2 -12.8,-2 3.1,-1.8 4.1,-5.7 5.5,-9.4 -2.9,-0.9 -5,-0.3 -7.5,0.3 1.8,-4.2 3.7,-8.7 6,-12.4 -2.4,-0.3 -5.6,0.2 -8.3,1.1 2.4,-4.9 4.9,-10 8.3,-13.8 -2.4,0 -4.9,0 -7.4,0 4.4,-4.3 6.4,-11.4 14.5,-12 -0.8,-3.3 -6.3,-1 -9.1,-4 5.5,-2 9.6,-5.5 17.3,-5.3 -0.5,-1.1 -3.7,-5.1 -5.3,-7.3 4,0.4 13.8,0.9 18.2,3.3 3.6,-3.7 10.1,-4.9 17.4,-3.3 -1.6,1.8 -4.4,2.3 -5.4,4.6 6.5,5.4 16.2,7.5 24.2,11.4 0,6.3 -4.2,9.3 -8.1,13.4 -1.5,-3.6 -6.8,-2.9 -10.8,-3.9 -0.9,0.4 -1,1.8 -1.1,3 7.1,0.2 12.6,3.7 18.6,2.2 5.5,-1.5 5.3,-9.3 11.4,-9.4 -3.5,2.8 -1.7,10.8 -6,12.7 -10,1.5 -15.7,-3.9 -23.3,-2.6 0.6,4.1 6.4,4.7 9.5,2.4 0.3,2.3 3.2,1.1 3.6,2.8 0.8,3.3 -3.5,6.8 -5.4,8.4 -0.3,-4.8 -7.9,-6 -10.1,-3.7 -5.7,5.9 11.8,8.3 16.1,14.7 -1.4,0 -3.4,0.2 -4.8,0.2 0,2.9 4.3,1.9 6.2,1.8 3.9,-0.6 8.4,-5.8 9.4,-10.7 0.8,-4.1 -2.7,-10 3.5,-11.3 3.9,-0.3 4.2,-3 7.2,-4.1 3.1,-1.7 -1.4,2.1 -0.4,4.3 0.3,0 0.5,-0.1 0.8,-0.1 2,0 4.1,1.1 5.2,2.8 1.5,-0.8 4.3,0.7 4.7,3.3 -1.9,-0.5 -3.3,-0.9 -4,0.3 -1.1,2.1 -0.9,3.9 0,5 0.6,0.6 1.3,3.8 1.3,6 -4.5,-4.7 -9,5.4 -12.8,7.9 0.8,1.6 2.9,2 4.7,2.6 -1.3,2.3 -4.7,2 -7.3,2.9 0.1,2 5.1,2.800003 2.6,3.300003 -2.9,0.4 -6.1,2.1 -8.8,0.8 -2,0.5 2.7,3 0.7,3.3 -6.3,1.3 -17.5,-2.6 -17.2,1.3 0.7,6.1 7.6,2.4 11.4,1.6 9.2,-1.9 24.5,-6.2 28.2,8.2 -5.9,-5.3 -3.4,5.1 -6.8,7.8 -1.8,1.2 0,-3.1 -1.1,-3.6 -4.8,-1.6 -4.6,4 -7.6,5.1 -2.6,-14.5 -14.7,-0.2 -20.8,2.4 -0.3,-1.6 -0.3,-1.7 -0.5,-3.9 -3,1 -4.9,3.9 -7.3,5.5 -1.3,-1.3 -0.9,-3.7 -1.5,-5.5 -3.3,1.8 -6,4.2 -9.4,5.9 -0.6,-1.4 -0.2,-3.1 -1.4,-5.3 -4.6,-3.4 -14.7,-1.4 -22.2,-1.8 0.3,4.1 8.6,2.3 12.4,3.4 4.3,1.5 9.8,6.4 8,13.8 -2.4,9.2 -27.8,9.7 -14.5,18.2 2.9,0.1 7.6,-4 15.8,-2 2.5,0.6 -0.5,1.7 -1.1,2.8 1.4,2.8 5.4,2.9 7,5.6 -1.4,0.8 -5.3,-0.3 -5,3.3 -9.2,-0.6 -28.5,0 -28.7,-0.3 -1,-1.9 -2.3,-4.5 -3.4,-7.1 -2,-0.3 -6.5,1.4 -8.1,0.8 -2.6,-0.8 4.4,-5.9 4.8,-8 -0.6,-1.6 -3.4,-1.3 -5.3,-1.5 2.4,-4.5 11.6,-6.8 10.7,-9.8 -1,-4.5 -6.9,-4.6 -11,-6.2 2,10.7 -15.7,10.1 -19.6,18.3 -0.2,-2 -0.9,-3.6 -1.6,-4.8 -2.2,1.6 -5.2,3.1 -6.3,5.7 -1.1,-0.8 0.1,-3.8 -2.4,-3.8 -5.2,0.1 -10.6,5 -9.8,6.4 2,2.9 6.3,-2.5 8.3,-2 1.6,0.5 1.6,1.8 3.4,2.2 1.8,0.5 3.6,-0.1 4.8,0.8 -0.1,0.8 -1.2,1.5 -2.1,1.6 0.8,3.1 4.9,1.8 6.2,4.4 -2,0 -3.7,1.3 -5.2,3.3 -5.5,-0.3 -28.7,0.4 -29.7,-0.4 -1.6,-1.1 -2.4,-2.2 -2.7,-3.6 -1.4,-4.8 3.7,-5.5 5.5,-8.9 -1.1,-1.6 -4.4,-1.7 -6.6,-2.2 2.3,-3.6 8.9,-3.8 12.4,-6.3 -1.3,-1.3 -2.8,-2.1 -5.4,-2 3.3,-6.2 10.8,-4.2 15.9,-7.7 5.8,-4 5.1,-11.1 8.3,-18.3 -13.6,4 -24.7,11.3 -40.9,11.3 -18.2,0 -30.8,-10.4 -32.9,-25.3 -3.3,-24.800003 15.3,-38.700003 33.5,-46.700003 -8.6,-9.4 -17.6,-17 -16,-32 3.5,-33.2999999 70.8,-35.2999999 70.5,1.3 -0.1,17.5 -16.3,24.3 -28.7,31.4 2.1,1.7 5.6,4.3 6.5,4.7 1,0.5 3.8,-0.5 6.1,-0.1 11.1,1.7 14.9,10.1 22.1,15.3 z m -26,-50 c 1.6,-12.9 -7.7,-18.6999999 -18.3,-16.7 -17.8,3.4 -12.5,30.7 -0.6,38 8.1,-3.8 17.6,-11.1 18.9,-21.3 z m 88.5,14.9 c -4.2,0 -8.6,-0.1 -9.3,3.4 2.9,0 3.8,1.8 7.2,1.3 -1.5,-2.6 0.5,-3.4 2.1,-4.7 z m 12.8,6.9 c -1.7,-0.3 -2.2,-3.6 -4,-2 -0.4,2.1 2.8,3.8 4,2 z"
   id="path2" />&#10;&#10;</svg>
