<?xml version="1.0" encoding="UTF-8" standalone="no"?>
<!-- Created with Inkscape (https://www.inkscape.org/) -->

<svg
   width="100%"
   viewBox="0 0 68.291168 14.092"
   preserveAspectRatio="xMidYMid meet"
   version="1.1"
   id="svg1"
   xml:space="preserve"
   xmlns="https://www.w3.org/2000/svg"
   xmlns:svg="https://www.w3.org/2000/svg"><defs
     id="defs1"><clipPath
       clipPathUnits="userSpaceOnUse"
       id="clipPath1"><rect
         style="fill:#6e7e61;stroke-width:3.117;stroke-dasharray:1.268, 0.634, 0.317, 0.634"
         id="rect2"
         width="318.02917"
         height="112.44791"
         x="-54.067017"
         y="92.276047" /></clipPath><clipPath
       clipPathUnits="userSpaceOnUse"
       id="clipPath3"><rect
         style="fill:#6e7e61;stroke-width:3.1451;stroke-dasharray:1.27943, 0.639714, 0.319857, 0.639714"
         id="rect4"
         width="297"
         height="111.99179"
         x="-54.067017"
         y="92.276047" /></clipPath></defs><path
     id="path36"
     style="fill:#292968;fill-opacity:1;stroke-width:2.95008;stroke-dasharray:1.2001, 0.600048, 0.300024, 0.600048"
     d="m 203.79161,59.851563 c 0,2.269644 -3.70627,2.157472 -4.83789,4.425781 -0.83014,1.663972 -1.14062,2.849012 -1.14062,4.470703 0,2.297586 0.33935,3.864768 2.38086,4.972656 2.03393,1.103777 5.40324,0.792093 7.49218,-0.232422 1.50944,-0.740297 2.28161,-1.458817 2.98243,-2.955078 0.7043,-1.503746 0.77042,-2.428385 0.48242,-4.289062 -0.44935,-2.90305 -1.64744,-4.36766 -4.54102,-4.765625 -0.0738,-0.01015 -0.13306,-0.02021 -0.18945,-0.0293 -0.50947,-0.787284 -2.62891,-2.923405 -2.62891,-1.597656 z m 73.35742,1.228515 c 2.13547,-0.49453 -4.52695,0.139033 -5.81445,0.472656 -2.67532,0.693244 -8.9807,3.744522 -9.125,6.332032 L 262.47911,67 c 5.5e-4,-0.0018 -0.004,0.0032 -0.006,0.0059 -0.003,0.0035 -0.006,0.0072 -0.01,0.01172 -0.005,0.005 -0.0104,0.01015 -0.0156,0.01563 -0.006,0.0061 -0.0118,0.01194 -0.0176,0.01758 -0.007,0.0063 -0.0125,0.01303 -0.0176,0.01758 -0.69946,0.622371 -2.02415,2.946147 -2.50391,4.501953 -0.002,0.0019 -0.002,0.0039 -0.004,0.0059 -0.008,0.0095 -0.0157,0.02035 -0.0254,0.03125 -0.0108,0.01211 -0.023,0.02416 -0.0351,0.03711 -0.0135,0.01439 -0.0267,0.02857 -0.041,0.04297 -0.016,0.016 -0.0331,0.03213 -0.0488,0.04687 -1.4617,1.365541 -2.07226,2.77101 -2.07226,4.771484 0,1.903328 0.50993,3.085712 1.81445,4.484375 1.16718,1.25143 2.24335,1.410157 4.22656,1.410157 1.56331,0 3.0363,-0.0575 4.00977,-1.230469 0,0 0.37822,-0.300657 0.71875,-0.515625 1.47049,-0.928279 3.5125,-3.515582 4.37305,-5.179688 0.31457,-0.608334 1.47895,-1.445494 1.70703,-1.488281 0.67092,-0.125868 1.69976,-0.453276 2.27734,-0.751953 0,0 0.57258,-0.09961 1.83008,-0.09961 0.72147,0 0.88593,-0.01569 1.03125,-0.0293 0.032,0.385681 0.0488,0.849196 0.0488,2.167968 v 2.808594 l -1.1836,2.501953 c -2.0678,4.373253 -2.7783,5.936053 -2.98242,6.900391 -0.003,0.0037 -0.007,0.0086 -0.01,0.01172 -0.006,0.0061 -0.009,0.0093 -0.0117,0.01172 -0.52568,0.490663 -1.2336,1.448464 -1.57032,2.09375 -0.0312,0.05988 -0.88998,1.149503 -1.81054,2.056641 -0.98164,0.967328 -2.44922,2.252852 -2.44922,3.587891 l 0.21484,-0.94336 c 0.003,-0.0116 -0.013,0.01952 -0.0215,0.03125 -0.009,0.01303 -0.0199,0.02767 -0.0312,0.04297 -0.0126,0.01697 -0.0263,0.03546 -0.041,0.05469 -0.0164,0.02136 -0.0342,0.04287 -0.0527,0.06641 -0.0206,0.02616 -0.0415,0.05386 -0.0645,0.08203 -0.0255,0.0313 -0.0523,0.06466 -0.0801,0.09766 -0.0308,0.03667 -0.0628,0.07352 -0.0957,0.111329 -0.0365,0.04201 -0.0752,0.08478 -0.11328,0.126953 -0.58798,0.650811 -1.34359,1.746094 -1.55859,2.658203 l -0.20508,0.318359 c -0.40874,0.63452 -1.16491,1.638121 -1.56641,2.441405 -0.67127,1.34301 -0.89257,2.51917 -0.89257,4.41211 0,3.95565 1.19236,4.82157 5.56054,6.31641 l 3.21485,1.09961 8.14843,0.0176 8.15625,0.0215 3.23047,-1.11133 c 4.61109,-1.5861 5.62448,-1.95814 6.39258,-3.34375 0.85455,-1.54136 0.74395,-5.61113 0.25,-7.25976 -0.76769,-2.562282 -2.43397,-3.144524 -5.4043,-3.669927 -2.83196,-0.50093 -10.34731,-1.084894 -11.68164,-0.75 -0.17101,0.04292 -0.33978,0.122133 -0.50976,0.19336 0.52964,-0.986707 0.9511,-1.983751 0.95312,-2.652344 l -0.14453,0.789062 c -0.003,0.01536 0.0155,-0.02698 0.0254,-0.04297 0.011,-0.01776 0.0241,-0.03802 0.0371,-0.05859 0.0145,-0.02286 0.0301,-0.04638 0.0469,-0.07227 0.0186,-0.02876 0.0374,-0.05976 0.0586,-0.0918 0.0235,-0.03559 0.0498,-0.0722 0.0762,-0.111328 0.0294,-0.04347 0.0592,-0.08944 0.0918,-0.136718 0.0362,-0.05253 0.0755,-0.107482 0.11523,-0.164063 0.26772,-0.381339 0.59864,-0.830746 0.96485,-1.302734 2.57834,-3.323081 4.88562,-7.999299 5.92968,-12.03125 0.73589,-2.841916 0.83032,-3.739655 0.72266,-7.396485 -0.14353,-4.874891 -0.21006,-7.026147 -2.23437,-8.0625 -0.88188,-1.745077 -3.64024,-2.918801 -6.00391,-3.416015 -1.41939,-0.298581 -8.17666,0.06488 -6.04102,-0.429688 z m -144.51622,4.060547 c -0.41903,0.02072 -1.0139,0.15066 -1.48437,0.277344 -0.0313,0.0084 -0.0635,0.01593 -0.0957,0.02344 -0.029,0.0068 -0.0576,0.01382 -0.0859,0.01953 -0.0255,0.0051 -0.0505,0.0095 -0.0742,0.01367 -0.0214,0.0037 -0.0414,0.0069 -0.0606,0.0098 -0.0172,0.0025 -0.0323,0.0041 -0.0469,0.0059 -0.0131,0.0016 -0.0249,0.0029 -0.0352,0.0039 -0.009,9.3e-4 -0.0171,0.0015 -0.0234,0.002 -0.006,4.44e-4 -0.0108,0.0018 -0.0137,0.002 l 0.13867,0.04492 c -2.28971,-0.35939 -7.49988,0.746128 -8.44726,1.792968 -0.69811,0.771399 -1.0516,2.665796 -1.22461,4.156251 -0.14705,1.266718 -0.29881,2.162077 -0.29883,2.162109 -0.90354,1.639933 -1.17887,7.388598 -1.54492,18.410156 -0.38423,11.568967 -0.48216,12.670267 1.5625,14.367187 0,0 0.31885,0.3984 0.53711,0.74414 0.42116,0.66718 1.23473,1.68905 2.30664,2.0293 0,0 -0.4758,-0.25352 -0.42383,-0.19922 0.006,0.006 0.0108,0.012 0.0176,0.0195 0.008,0.008 0.0153,0.0177 0.0234,0.0273 0.009,0.0107 0.0183,0.0217 0.0273,0.0332 0.0101,0.0127 0.02,0.0244 0.0293,0.0371 0.0103,0.0141 0.021,0.0285 0.0293,0.041 0.009,0.014 0.0158,0.0255 0.0215,0.0352 0.8149,1.38112 1.94152,1.9138 4.08789,2.61133 2.0937,0.6804 3.3103,0.87044 5.58398,0.8789 5.24403,0.0207 12.79239,-0.83929 14.60938,-2.45117 0.22203,-0.19697 0.62096,-0.46859 0.90429,-0.61133 2.23651,-1.12663 5.10946,-5.05098 6.5586,-8.11718 0.67227,-1.42248 1.16397,-3.193501 1.54297,-5.330082 0.48479,-2.733176 0.55339,-4.066326 0.44531,-8.589844 -0.11621,-4.863209 -0.76204,-11.900758 -1.4668,-15.923828 l -0.62305,-3.566407 h -5.59374 -5.64258 l -0.57617,3.873047 c -0.17748,1.193432 -0.42657,4.149343 -0.57227,6.652344 -0.14235,2.445655 -0.42264,5.29912 -0.5918,6.240234 -0.20523,1.141905 -0.49699,3.116273 -0.65039,4.386719 -0.42894,3.552657 -1.04306,5.336894 -1.09375,5.392578 -0.30736,0.337666 -0.82371,1.040199 -1.05273,1.796875 -0.006,0.01005 -0.0117,0.01933 -0.0195,0.03125 -0.0121,0.0183 -0.0258,0.03849 -0.041,0.06055 -0.0169,0.02451 -0.0362,0.05149 -0.0566,0.08008 -0.0227,0.03177 -0.0474,0.0653 -0.0742,0.101563 -0.0298,0.04029 -0.0611,0.08363 -0.0957,0.128906 -0.3624,0.474022 -0.91097,1.118729 -1.6543,1.931641 l -0.11328,0.125 h -1.99219 c -0.5887,0 -1.04252,-4.67e-4 -1.41211,-0.0059 -0.0848,-0.0012 -0.14905,-0.0022 -0.2207,-0.0039 -0.26437,-0.38367 -0.63838,-0.782206 -1.18359,-1.023437 -0.0112,-0.0093 -0.0227,-0.01853 -0.0352,-0.0293 -0.0168,-0.01451 -0.0342,-0.03029 -0.0527,-0.04687 -0.0206,-0.01843 -0.0407,-0.0382 -0.0625,-0.05859 -0.0243,-0.02266 -0.0493,-0.04599 -0.0742,-0.07031 -0.0277,-0.02703 -0.0566,-0.05593 -0.084,-0.08398 -0.1911,-0.195461 -0.13653,0.261089 -0.38867,-2.150391 -0.24988,-2.389878 -0.22951,-2.72632 0.33008,-7.179687 0.33967,-2.703132 0.77539,-5.236336 0.77539,-5.236328 0.48517,-1.385937 1.36901,-6.757519 1.38477,-8.150391 0.001,-0.100291 0.0979,-0.451524 -0.0293,-0.898437 0.001,-0.01344 0.003,-0.02518 0.004,-0.03906 0.005,-0.05318 0.0111,-0.108901 0.0176,-0.167969 0.0661,-0.606512 0.18399,-1.438211 0.3418,-2.371093 0.32533,-1.923166 0.97911,-4.453381 -0.13477,-5.56836 -0.79391,-0.793664 -1.6949,-0.682558 -1.83203,-0.675781 z m 188.29552,1.080078 c -2.16746,0 -3.18415,0.199853 -4.85937,1.001953 -1.66636,0.797859 -5.44979,3.414063 -6.36524,4.451172 -0.11493,0.130204 -0.4336,0.336565 -0.5918,0.919922 -0.0115,0.01548 -0.0227,0.03031 -0.0351,0.04687 -0.0211,0.02795 -0.0429,0.05748 -0.0664,0.08789 -0.0261,0.03379 -0.0533,0.06932 -0.082,0.105468 -0.0319,0.04017 -0.0652,0.08078 -0.0996,0.123047 -0.0383,0.04696 -0.0784,0.09598 -0.11914,0.144531 -0.0452,0.05394 -0.0914,0.107482 -0.13867,0.16211 -0.40858,0.472083 -1.48484,2.785753 -1.34375,1.958984 l 0.002,-0.01172 c 0.002,-0.01061 -0.0116,0.01817 -0.0195,0.0293 -0.009,0.01232 -0.0186,0.02643 -0.0293,0.04102 -0.0119,0.01621 -0.0251,0.03233 -0.0391,0.05078 -0.0155,0.0205 -0.0331,0.04376 -0.0508,0.06641 -0.0197,0.02516 -0.0406,0.051 -0.0625,0.07813 -0.0243,0.03014 -0.0497,0.06003 -0.0762,0.0918 -0.0294,0.0353 -0.0604,0.07108 -0.0918,0.107422 -0.0349,0.04038 -0.0691,0.08262 -0.10547,0.123047 -0.68539,0.762117 -1.66634,2.394107 -2.33203,3.722656 -2.14101,4.272955 -2.56831,8.5757 -1.75781,14.75586 0.60501,4.613286 1.96925,8.933715 3.6914,11.095705 0.1939,0.24342 0.7069,1.01824 1.09375,1.68359 0.88789,1.52699 1.75562,2.21109 3.67774,3.19922 1.22857,0.6316 3.11456,1.33272 4.25195,1.54492 4.15933,0.776 11.39179,0.27434 14.59766,-1.19336 0.65049,-0.29779 0.69336,-0.41211 0.69336,-0.41211 1.2724,0 2.56578,-1.3473 3.40234,-2.19922 0.75844,-0.77233 1.6829,-1.49242 1.81055,-1.55859 1.33696,-0.69296 2.23946,-1.88922 4.14648,-4.72852 1.51429,-2.254556 2.55991,-7.154672 2.56836,-10.927729 0.009,-3.616071 -1.12975,-8.244932 -2.83203,-11.603516 -0.27555,-0.543653 -0.41797,-0.794922 -0.41797,-0.794922 0,-1.311774 -0.86121,-2.265519 -1.75,-2.742187 -0.3707,-0.817798 -0.9998,-1.547995 -1.86523,-1.978516 -0.82911,-1.55173 -2.79627,-2.323585 -5.2793,-3.095703 -0.0793,-0.02466 -0.15145,-0.04776 -0.2168,-0.07031 -0.0588,-0.0203 -0.11112,-0.03858 -0.1582,-0.05664 -0.0424,-0.01625 -0.0788,-0.03105 -0.11133,-0.04492 -0.0231,-0.0099 -0.0427,-0.01907 -0.0605,-0.02734 -0.45262,-0.715424 -1.12974,-1.221023 -1.95899,-1.412109 -1.32103,-1.945814 -4.22073,-2.734375 -7.01953,-2.734375 z m 6.27344,2.628906 0.0723,0.002 0.0293,0.01172 c 0.0327,0.01308 -0.066,-0.01367 -0.10156,-0.01367 z M 217.70763,70.09375 c 4.00631,-0.463889 -3.79006,2.936345 -4.11719,6.712891 -0.26505,3.059971 -0.24578,4.61182 0.10156,8.892578 0.2235,2.754549 0.61457,5.873464 0.75977,6.355468 0,0 0.33512,3.059029 0.53125,6.310547 0.3796,6.293446 0.56053,7.700346 2.41406,9.431646 0.1884,0.17597 0.32485,0.37987 0.36328,0.47265 0.53307,1.28692 1.7956,2.05731 3.16016,2.7461 1.82829,0.92285 2.81042,1.15506 4.93945,1.16992 2.59661,0.0182 7.20926,-0.94075 8.26953,-2.92188 0,0 0.39659,-0.56048 0.84375,-1.0957 1.51106,-1.80859 2.34344,-4.71104 2.54688,-7.85547 0.0834,-1.288704 0.21655,-2.795029 0.2832,-3.285156 l 0.49219,-3.636719 h -3.58789 c -1.79283,0 -4.41039,0.54377 -4.90625,2.888672 -0.0805,0.380543 -0.36106,1.877208 -0.65039,3.449219 -0.48254,2.621814 -1.36106,4.584114 -1.48438,4.605464 l -1.01562,0.17579 c -0.61421,0.10631 -0.85002,-0.91575 -1.4336,-1.18164 0,0 0.31528,0.21116 0.22852,0.0937 -0.01,-0.0131 -0.0194,-0.0267 -0.0293,-0.041 -0.011,-0.0159 -0.0226,-0.0323 -0.0332,-0.0488 -0.0118,-0.0184 -0.0227,-0.0367 -0.0332,-0.0547 -0.0274,-0.0469 -0.046,-0.0827 -0.0586,-0.11132 -0.13533,-0.30706 -0.31123,-0.71282 -0.54492,-1.10547 -0.001,-0.0164 -0.003,-0.0316 -0.004,-0.0488 -0.004,-0.0459 -0.006,-0.0952 -0.01,-0.14649 -0.004,-0.057 -0.009,-0.1164 -0.0137,-0.17968 -0.005,-0.0703 -0.009,-0.14499 -0.0137,-0.22266 -0.006,-0.0863 -0.0118,-0.1766 -0.0176,-0.27148 -0.006,-0.10543 -0.013,-0.21465 -0.0195,-0.33008 -0.0995,-1.749606 -0.21401,-4.534695 -0.31055,-7.664064 -0.16801,-5.446198 -0.21825,-8.28333 -0.59375,-9.898438 0.28417,-0.05877 0.58122,-0.07447 0.7832,-0.0078 0.51836,0.171079 2.43417,0.881404 3.51563,-0.615235 0.43519,-0.602291 1.58398,-3.543617 1.58398,-4.455078 0,-2.745515 -2.88256,-2.609375 -5.36523,-2.609375 h -1.11133 c -0.54995,0 -0.12944,-1.026553 -0.1875,-1.638672 l -0.36719,-3.871094 h -4.13086 c -0.29183,0 -1.01428,0.01963 -0.77734,-0.0078 z m 145.75586,2.572266 c -0.53601,0.0043 -1.04275,0.0195 -1.49219,0.04297 -1.68157,0.0878 -5.22024,0.22429 -7.85938,0.306641 -4.17025,0.130129 -6.40864,-0.01289 -7.04101,2.203125 -0.7973,2.794203 -0.93957,9.378802 -0.1582,11.878906 0.53321,1.706059 1.51568,2.317389 3.10742,2.794922 2.01223,0.603679 2.85638,0.735085 7.77734,1.130859 4.19186,0.337135 3.95106,0.273877 5.29883,0.951172 1.46595,0.736685 1.51953,0.325154 1.51953,3.835938 0,3.51663 -0.52411,4.571501 -0.61719,4.636721 -2.0167,1.4129 -1.50672,1.20731 -3.32422,1.20703 -1.0929,-1.8e-4 -2.852,-0.15243 -3.91601,-0.33985 -0.54696,-0.0963 -0.72218,-0.11683 -1.19727,-0.1914 -0.33651,-0.55474 -0.83802,-1.151411 -1.55664,-1.523439 -0.001,-0.0024 -0.003,-0.0034 -0.004,-0.0059 -0.12692,-0.244766 -0.29051,-0.702788 -0.4375,-1.429688 -0.15973,-0.789845 -0.4761,-2.027064 -0.70508,-2.748046 -0.51379,-1.61776 -1.20879,-2.467594 -2.89453,-2.972657 -2.80812,-0.841334 -4.34813,0.406978 -4.98243,3.097657 -0.53896,2.286296 -0.44914,4.00892 0.31446,6.250003 0.85056,2.49629 1.98025,4.18568 4.03906,6.20507 1.35817,1.33216 2.38251,1.91276 4.46289,2.59961 2.18749,0.72223 3.132,0.8483 6.86133,0.78907 3.89138,-0.0618 4.62544,-0.19053 6.61914,-1.125 2.39698,-1.12349 4.24973,-2.92187 6.30859,-5.77735 1.99427,-2.76589 2.32618,-4.32111 2.32618,-9.279294 0,-3.75351 -0.11267,-4.91362 -0.6875,-6.654297 -0.28669,-0.868151 -0.56084,-1.715449 -1.14258,-2.390625 -0.58174,-0.675176 -1.38605,-1.071626 -2.19336,-1.472656 -2.49469,-1.239221 -5.39151,-1.801063 -9.28711,-1.976563 -2.7529,-0.12402 -3.85262,-0.02113 -6.21875,0.583985 -0.35658,0.09119 -0.5822,0.148019 -0.85156,0.216797 -0.01,-0.06566 -0.0192,-0.128492 -0.0293,-0.201172 -0.0177,-0.127827 -0.036,-0.26533 -0.0547,-0.414063 -0.0207,-0.165259 -0.0407,-0.344233 -0.0625,-0.535156 -0.0281,-0.24642 -0.0374,-0.403108 -0.0605,-0.628906 3.06329,-0.267681 8.95823,-0.578995 12.20899,-0.580078 4.81923,-0.0016 5.94968,0.09455 7.18945,-1.275391 0.10274,-0.113531 0.32211,-0.285505 0.52539,-0.390625 2.97127,-1.536497 2.45966,-5.071552 -0.65625,-5.980469 -1.9864,-0.579438 -7.47668,-0.867474 -11.1289,-0.83789 z m -41.58789,5.978515 h 0.86523 c 1.39535,0 1.16427,-0.06312 2.82422,0.771485 l 1.32812,0.666015 1.2168,2.482422 1.33008,2.712891 0.0703,3.224609 0.0606,2.841797 -0.25,0.285156 c -0.44501,0.507594 -0.95607,1.247837 -1.31836,1.839844 -0.7927,0.08383 -1.73574,0.250077 -2.79883,0.464844 -0.90211,0.182243 -1.43536,0.296352 -2.04883,0.425781 -0.59381,-0.669549 -1.37032,-1.143589 -2.09375,-1.482422 -0.56035,-0.262457 -0.54033,-0.05149 -0.68945,-1.310547 -0.0422,-0.356253 -0.22704,-1.21693 -0.54492,-2.037109 -0.004,-0.03216 -0.008,-0.06192 -0.0117,-0.0957 -0.01,-0.08357 -0.0189,-0.173003 -0.0293,-0.265625 -0.0696,-0.621781 -0.14381,-1.419033 -0.21094,-2.3125 -0.40645,-5.410428 -0.27191,-5.530394 1.82813,-7.71875 z m -148.45011,1.376953 -1.81836,0.919922 c -1.56758,0.794355 -2.77351,1.935365 -3.6543,3.386719 -0.28571,-1.94353 -0.82958,-4.294937 -3.51562,-3.519531 -0.18577,0.05363 -0.84455,0.232056 -1.42774,0.382812 l -2.86133,0.734375 0.23047,5.144531 c 0.0808,1.804577 0.25096,6.296466 0.37696,9.97461 0.13528,3.949038 0.325,7.046658 0.73242,8.042968 -0.0254,-0.0651 -0.0533,-0.0894 -0.0625,0.0762 -0.0144,0.25796 -0.0549,0.61228 -0.14258,1.17578 -0.17064,1.0971 -0.41057,2.81634 0.17383,3.76172 0.89278,1.44462 3.23122,1.34571 5.20703,1.34571 3.08707,0 4.9638,0.0414 5.44726,-2.38672 0.0617,-0.30989 0.27507,-3.95909 0.42383,-7.67774 0.27593,-6.897901 0.42283,-7.749089 1.28711,-9.50781 0.22912,-0.466236 0.1342,-0.416012 0.87891,-0.78125 0.92592,-0.454114 0.79305,-0.429687 2.58984,-0.429688 1.06325,0 1.95509,0.09766 1.95508,0.09766 0,0 0.63745,1.274706 0.73828,2.386718 0.0365,0.40277 0.14694,1.503153 0.56055,2.388672 0.003,0.02331 0.005,0.04366 0.008,0.06836 0.009,0.07536 0.0164,0.15698 0.0254,0.24414 0.01,0.09685 0.0209,0.201713 0.0312,0.3125 0.0115,0.123098 0.0233,0.252822 0.0352,0.392579 0.0643,0.758975 0.13368,1.902012 0.20312,3.111328 -0.18614,2.140791 -0.26735,4.282421 -0.27539,5.302731 -0.0164,2.08452 -0.0229,3.72994 0.0273,4.35742 0.006,0.0697 -1.93646,0.704 1.46679,2 0.67231,0.25475 1.70435,0.29511 3.08203,0.47071 1.36647,0.17416 2.39217,0.30458 2.39258,0.30468 2.82336,0.68343 2.78574,-1.72423 2.83399,-1.93359 0.43424,-1.88427 1.2165,-9.11307 1.20117,-11.269529 -0.008,-1.104154 -0.12092,-2.623965 -0.2793,-3.427735 -0.0742,-0.376429 -0.31937,-2.628809 -0.48047,-4.742187 -0.23211,-3.044912 -0.49901,-4.720765 -1.1582,-5.667969 -0.14833,-0.213151 -0.26213,-0.470881 -0.29102,-0.585938 -0.78382,-3.122998 -4.46238,-3.715189 -10.80664,-4.123047 z m 49.73722,1.853516 0.0215,0.0293 0.0449,0.06641 0.002,0.0098 c 0.008,0.03936 -0.0684,-0.06608 -0.0684,-0.105469 z m -16.66211,0.783203 c -0.53516,-0.03634 -1.33221,0.106674 -1.85352,0.255859 -0.49732,0.142315 -1.81746,0.452207 -2.89453,0.673829 -1.10373,0.227107 -2.54382,0.521129 -3.06641,0.943359 -1.02629,0.828915 -1.06918,3.008559 -1.24804,4.726562 -0.16868,1.620103 -0.37498,2.855417 -0.375,2.855469 -0.50233,0.938641 -0.7144,3.117873 -0.90039,5.210938 -0.67441,7.589561 -1.30191,11.680521 -0.15821,12.824221 0.72943,0.7293 2.76552,1.00153 4.55469,1.32812 l 5.71094,1.04102 0.86523,-10.65039 c 0.36308,-4.468192 0.91289,-9.98728 1.21485,-12.234378 0.31094,-2.313836 0.84624,-5.179611 -0.25,-6.27539 -0.71408,-0.714111 -1.38937,-0.68494 -1.59961,-0.699219 z m -39.83097,2.46875 h 0.0273 l 0.006,0.0039 c -0.009,-9.3e-5 -0.024,-0.0039 -0.0332,-0.0039 z m 162.06143,8.263672 c -0.0242,0 -0.0649,0.0093 -0.0898,0.0098 l 0.0195,-0.0078 z m -48.45898,6.113281 0.0254,0.01367 0.0371,0.07227 c -0.0339,-0.07441 -0.0463,-0.07319 -0.0625,-0.08594 z m -53.1543,5.681644 0.0254,0.0312 0.0234,0.0273 0.0176,0.0254 0.0176,0.0254 0.0156,0.0273 c 0,0 0.0176,0.0351 0.0176,0.0352 -0.0289,-0.0634 -0.0852,-0.11007 -0.11719,-0.17187 z"
     transform="matrix(0.26458334,0,0,0.26458334,-31.51603,-15.723553)" /></svg>
