<?xml version="1.0" encoding="UTF-8" standalone="no"?>
<!-- Created with Inkscape (http://www.inkscape.org/) -->

<svg
   version="1.1"
   id="svg1"
   width="50"
   height="50"
   viewBox="0 0 50 50"
   sodipodi:docname="email-phone.svg"
   inkscape:version="1.3 (0e150ed6c4, 2023-07-21)"
   xmlns:inkscape="http://www.inkscape.org/namespaces/inkscape"
   xmlns:sodipodi="http://sodipodi.sourceforge.net/DTD/sodipodi-0.dtd"
   xmlns="http://www.w3.org/2000/svg"
   xmlns:svg="http://www.w3.org/2000/svg">
  <sodipodi:namedview
     id="namedview1"
     pagecolor="#ffffff"
     bordercolor="#000000"
     borderopacity="0.25"
     inkscape:showpageshadow="2"
     inkscape:pageopacity="0.0"
     inkscape:pagecheckerboard="0"
     inkscape:deskcolor="#d1d1d1"
     inkscape:zoom="1"
     inkscape:cx="55.5"
     inkscape:cy="32.5"
     inkscape:window-width="3840"
     inkscape:window-height="2066"
     inkscape:window-x="2869"
     inkscape:window-y="-11"
     inkscape:window-maximized="1"
     inkscape:current-layer="svg1" />
  <defs
     id="defs1" />
  <path
     style="fill:#000000;stroke-width:0.0714529"
     d="M 22.390762,44.906154 C 17.557393,44.285811 12.791365,41.709455 9.7478811,38.071828 7.1814415,35.004373 5.573324,31.344422 5.096416,27.485454 c -0.1285541,-1.040214 -0.1285541,-3.919398 0,-4.959611 0.5449894,-4.40986 2.5832575,-8.595359 5.707669,-11.720466 3.124412,-3.1251072 7.308982,-5.1638286 11.71786,-5.7089392 1.039982,-0.1285827 3.918527,-0.1285827 4.958509,0 4.408878,0.5451106 8.593449,2.583832 11.71786,5.7089392 3.161994,3.162697 5.193835,7.371808 5.720332,11.850095 0.166625,1.41728 0.06421,4.702088 -0.188243,6.038141 -0.402941,2.132395 -1.173944,4.236107 -2.28685,6.239759 -3.006826,5.413421 -8.692517,9.206196 -14.963099,9.981485 -0.951157,0.117602 -4.148194,0.112134 -5.089692,-0.0087 z m 10.183595,-8.33543 c 1.184458,-0.285533 2.503455,-1.110969 3.937619,-2.464186 1.071462,-1.010986 1.287009,-1.708896 0.830612,-2.68938 -0.731557,-1.571616 -2.452039,-3.374127 -4.060469,-4.254061 -1.315619,-0.719743 -1.958227,-0.677844 -2.740896,0.178711 -0.293189,0.320868 -0.556822,0.734468 -0.682318,1.070456 -0.112483,0.30115 -0.270793,0.621039 -0.3518,0.710864 -0.515522,0.571639 -2.051931,0.610204 -3.131526,0.0786 -1.269575,-0.625148 -4.750959,-4.321858 -5.521963,-5.863499 -0.5642,-1.128133 -0.547571,-2.550795 0.03713,-3.176442 0.147649,-0.15799 0.509453,-0.356693 0.871621,-0.478696 0.715598,-0.241064 1.446954,-0.743463 1.723362,-1.18385 0.323864,-0.515998 0.220677,-1.293307 -0.314875,-2.371925 -0.562779,-1.133456 -1.163157,-1.92177 -2.236445,-2.936515 -1.505998,-1.423852 -2.392881,-1.780833 -3.315021,-1.334333 -0.867693,0.420136 -2.895834,2.566364 -3.439813,3.640096 -0.861283,1.700038 -0.871015,4.411843 -0.02447,6.819765 0.982627,2.795005 3.170455,5.914946 6.362458,9.073146 1.957186,1.936457 3.798819,3.299784 5.67439,4.200643 2.267144,1.088935 4.506059,1.432925 6.382409,0.980604 z"
     id="path1" />
</svg>
