<?xml version="1.0" encoding="UTF-8" standalone="no"?>
<!-- Created with Inkscape (http://www.inkscape.org/) -->

<svg
   width="50"
   height="50"
   viewBox="0 0 50 50"
   version="1.1"
   id="svg1"
   xml:space="preserve"
   inkscape:version="1.3 (0e150ed6c4, 2023-07-21)"
   sodipodi:docname="email-mail.svg"
   xmlns:inkscape="http://www.inkscape.org/namespaces/inkscape"
   xmlns:sodipodi="http://sodipodi.sourceforge.net/DTD/sodipodi-0.dtd"
   xmlns="http://www.w3.org/2000/svg"
   xmlns:svg="http://www.w3.org/2000/svg"><sodipodi:namedview
     id="namedview1"
     pagecolor="#ffffff"
     bordercolor="#000000"
     borderopacity="0.25"
     inkscape:showpageshadow="2"
     inkscape:pageopacity="0.0"
     inkscape:pagecheckerboard="0"
     inkscape:deskcolor="#d1d1d1"
     inkscape:document-units="mm"
     inkscape:zoom="2"
     inkscape:cx="147.25"
     inkscape:cy="152.75"
     inkscape:window-width="3840"
     inkscape:window-height="2066"
     inkscape:window-x="2869"
     inkscape:window-y="-11"
     inkscape:window-maximized="1"
     inkscape:current-layer="svg1" /><defs
     id="defs1" /><path
     style="fill:#000000;stroke-width:0.270049"
     d="M 22.389718,44.906154 C 18.092215,44.354556 13.878265,42.281318 10.803736,39.20592 7.6864734,36.087777 5.6401524,31.885487 5.0964094,27.485454 c -0.128546,-1.040214 -0.128546,-3.919398 0,-4.959612 0.543743,-4.400033 2.590064,-8.602323 5.7073266,-11.720467 3.120629,-3.1215088 7.313617,-5.1644548 11.717157,-5.7089378 1.03992,-0.128583 3.918291,-0.128583 4.958212,0 4.403541,0.544483 8.596529,2.587429 11.717157,5.7089378 3.117263,3.118144 5.163584,7.320434 5.707326,11.720467 0.128549,1.040214 0.128549,3.919398 0,4.959612 -0.543742,4.400033 -2.590063,8.602323 -5.707326,11.720466 -3.120628,3.121512 -7.313616,5.164456 -11.717157,5.708939 -0.9511,0.117599 -4.147945,0.112133 -5.089387,-0.0087 z m 12.874893,-9.976959 c 0.190604,-0.05485 -0.183458,-0.460663 -3.260998,-3.537773 -3.037963,-3.037538 -3.493357,-3.458035 -3.611582,-3.334835 -0.0744,0.07754 -0.849583,0.977067 -1.722618,1.998954 -0.873035,1.021892 -1.624271,1.857981 -1.669414,1.857981 -0.04514,0 -0.796379,-0.836089 -1.669414,-1.857981 -0.873036,-1.021887 -1.648214,-1.921417 -1.722619,-1.998954 -0.118224,-0.1232 -0.573617,0.297297 -3.611581,3.334835 -3.077541,3.07711 -3.451601,3.48292 -3.260997,3.537773 0.118416,0.03408 4.737491,0.06197 10.264611,0.06197 5.527119,0 10.146196,-0.02789 10.264612,-0.06197 z m -15.626867,-9.1545 c -0.06317,-0.08002 -1.690121,-1.981369 -3.615445,-4.225211 L 12.52171,17.46977 v 7.619028 c 0,4.190463 0.02766,7.691126 0.06146,7.779248 0.04722,0.123097 0.884925,-0.663252 3.615445,-3.393818 2.997235,-2.997281 3.535988,-3.576828 3.439124,-3.699533 z m 17.839084,-0.655285 0.0013,-7.651642 -3.622202,4.218507 -3.622203,4.218508 3.547106,3.549053 c 2.366553,2.367857 3.571612,3.510473 3.620745,3.433133 0.0405,-0.06375 0.07429,-3.559157 0.0751,-7.767559 z m -7.005413,-3.496238 c 2.963029,-3.458701 5.387377,-6.319888 5.387441,-6.358193 6e-5,-0.03831 -0.117765,-0.10262 -0.261837,-0.142921 -0.346107,-0.09682 -20.853605,-0.09518 -21.200807,0.0017 -0.147794,0.04124 -0.254228,0.11845 -0.236521,0.171587 0.05647,0.169472 10.7899,12.663089 10.85854,12.63925 0.03622,-0.01259 2.490156,-2.85272 5.453184,-6.311423 z"
     id="path3" /></svg>
