<?xml version="1.0" encoding="UTF-8" standalone="no"?>
<!-- Created with Inkscape (https://www.inkscape.org/) -->

<svg
   version="1.1"
   id="svg1"
   width="110"
   height="90"
   viewBox="0 0 110 90"
   xmlns="https://www.w3.org/2000/svg"
   xmlns:svg="https://www.w3.org/2000/svg">
  <defs
     id="defs1" />
  <path
     style="fill:#000000"
     d="M 3,87.252319 C 3,86.388645 38.680074,76.73418 61,71.558434 76.221583,68.028716 94.860527,65 101.36109,65 c 10.33685,0 6.52048,2.812819 -12.198189,8.990559 -9.559548,3.154947 -10.986605,3.863575 -7.912901,3.92928 2.0625,0.04409 3.75,0.553678 3.75,1.132421 0,0.641108 -2.051343,0.934157 -5.25,0.75 C 75.884338,79.579701 74.5,79.104475 74.5,78 c 0,-1.040233 4.291157,-2.926841 14,-6.155103 29.51161,-9.812827 -10.247468,-3.0985 -62,10.470271 C 5.1103779,87.92322 3,88.366593 3,87.252319 Z M 21.618079,68.191056 C 21.332015,67.728194 27.15092,63.126842 34.548981,57.96583 41.947041,52.804818 48,48.462433 48,48.316086 c 0,-0.146347 -1.2375,-0.02439 -2.75,0.271007 -1.609479,0.314342 -3.549137,-0.05515 -4.676863,-0.890909 C 38.851588,46.42034 38.783898,45.935929 39.93787,43.149995 41.83953,38.558982 51.191451,29.747867 61.467981,22.864935 72.483007,15.487378 95.628986,3.9935785 100.89241,3.2876056 c 5.18477,-0.6954242 6.0807,1.0797499 2.46683,4.8877254 -2.5897,2.728788 -30.444517,24.930219 -36.398622,29.011187 -1.782589,1.221795 -0.444081,0.999073 4.857549,-0.808274 7.647214,-2.606966 13.218311,-2.820029 13.969485,-0.534254 0.246839,0.751117 -3.908633,5.541496 -9.420092,10.859371 l -9.861767,9.515381 11.997103,-6.082191 C 95.598104,41.469765 99.73346,41.564685 92.045526,50.447398 89.820487,53.018231 88,55.721125 88,56.453831 88,57.567199 85.984428,59 84.418213,59 c -1.424555,0 0.200874,-2.905664 4.327442,-7.735863 5.779873,-6.765413 5.067403,-6.654265 -11.980278,1.868969 C 70.311334,56.359898 64.573834,59 64.015377,59 61.350631,59 63.835476,55.733088 73.006626,47.178894 78.502982,42.052285 83,37.380906 83,36.798051 83,35.095516 77.098714,36.496079 66.371839,40.744444 58.570093,43.834315 53.144851,47.058651 40.5,56.120626 21.464179,69.762711 22.270752,69.247103 21.618079,68.191056 Z m 31.055686,-24.2025 C 57.238136,42.010641 61.06399,39.26608 83.5,21.874668 98.356176,10.358812 104.32642,5 102.30004,5 95.205691,5 63.543025,22.424849 50.818496,33.331732 45.067118,38.261549 40.52966,44.429957 41.499892,45.999826 c 0.830049,1.343046 5.282773,0.541566 11.173873,-2.01127 z"
     id="path1" />
</svg>
