<?xml version="1.0" encoding="UTF-8" standalone="no"?>
<!-- Created with Inkscape (https://www.inkscape.org/) -->

<svg
   width="72.47683mm"
   height="17.531012mm"
   viewBox="0 0 72.47683 17.531012"
   version="1.1"
   id="svg1"
   xml:space="preserve"
   xmlns="http://www.w3.org/2000/svg"
   xmlns:svg="http://www.w3.org/2000/svg"><defs
     id="defs1" /><path
     style="font-size:13.0328px;line-height:1;font-family:'Waukegan LDO Extended';-inkscape-font-specification:'Waukegan LDO Extended';letter-spacing:0px;fill:#007dc5;stroke-width:1.59935;stroke-dasharray:0.650615, 0.325307, 0.162654, 0.325307"
     d="M 1.1078548,3.3724956 V 6.7516208 H 5.8308146 V 7.6692207 H 1.1078548 V 12.111611 H 0 V 2.396625 H 5.9474309 V 3.3724956 Z M 8.0914006,5.3096635 V 12.111611 H 7.0535158 V 5.3096635 Z m 0,-2.9130385 V 3.5181498 H 7.0535158 V 2.396625 Z M 9.7114113,5.3096635 H 10.70265 l -0.04665,0.7865191 q 0.303203,-0.509784 0.792992,-0.7282596 0.489788,-0.2184757 1.072869,-0.2184757 1.037885,0 1.50435,0.4952108 0.478127,0.4952219 0.478127,1.5147898 0,0.1019233 0,0.2039025 0,0.087395 -0.01166,0.2039135 h -0.991239 q 0.01166,-0.1165188 0.01166,-0.2475997 0,-0.1310921 0,-0.2621731 0,-0.6263028 -0.303203,-0.8447896 -0.291541,-0.2184757 -0.886283,-0.2184757 -0.792991,0 -1.201148,0.3932651 -0.396496,0.393254 -0.396496,1.1943463 V 7.945967 12.111611 H 9.7114122 Z M 20.765244,7.0720532 h -1.026218 q 0,-0.5534813 -0.174931,-0.7865191 -0.174923,-0.2330489 -0.758004,-0.262173 -0.279873,-0.014528 -0.559755,-0.014528 -0.279881,0 -0.571422,0 -0.10495,0 -0.22157,0 -0.104954,0 -0.221571,0.014528 -0.22157,0.014529 -0.43148,0.058226 -0.198247,0.043697 -0.349849,0.1602162 -0.139939,0.1019233 -0.186586,0.247611 -0.03499,0.145643 -0.04665,0.3058704 0,0.058226 0,0.1165189 0,0.058226 0,0.1165188 0,0.6263029 0.186587,0.8593517 0.198248,0.2184757 0.827975,0.2475998 0.186586,0.014529 0.384836,0.014529 0.19824,0 0.384831,0 1.131177,0.014528 2.040785,0.276735 0.921268,0.2621731 0.921268,1.6749946 0,1.485655 -0.80465,1.791525 -0.79299,0.30586 -2.064112,0.30586 -0.05834,0 -0.116618,0 -0.05834,0 -0.116609,0 -1.037888,-0.01453 -1.889187,-0.30586 -0.851299,-0.291308 -0.851299,-1.558476 0,-0.0437 0,-0.08739 0,-0.05823 0.01166,-0.101924 0,-0.0437 0,-0.08739 0.01166,-0.058226 0.01166,-0.1019237 h 1.026223 q 0,0.9321727 0.349848,1.2089197 0.361511,0.262173 1.247796,0.262173 h 0.256563 q 0.139937,0 0.314859,0 0.174923,-0.01453 0.361514,-0.02917 0.256554,-0.01453 0.501449,-0.07287 0.244896,-0.05823 0.408159,-0.17479 0.139937,-0.101923 0.209909,-0.276735 0.06997,-0.174778 0.0816,-0.36413 0.01163,-0.08739 0.01163,-0.174778 0,-0.08739 0,-0.174789 0,-0.8010815 -0.419818,-0.9321736 -0.408158,-0.1310809 -1.026226,-0.1310809 -0.01163,0 -0.02335,0 -0.01163,0 -0.03499,0 -0.0816,-0.014529 -0.174923,-0.014529 -0.0933,0 -0.19825,0 -0.06997,0 -0.151604,0 -0.06997,-0.014528 -0.139937,-0.014528 -1.049553,-0.043697 -1.807559,-0.2912971 -0.746344,-0.2621731 -0.746344,-1.543914 0,-0.1310921 0,-0.2621731 0.01166,-0.1456541 0.03499,-0.2913083 0.02333,-0.2912971 0.128278,-0.5534702 0.104954,-0.2767462 0.338187,-0.4515245 0.244894,-0.1893515 0.57142,-0.2913083 0.338188,-0.1019233 0.711359,-0.145643 0.244894,-0.029169 0.478127,-0.029169 0.2449,-0.014528 0.454809,-0.014528 0.186582,0 0.384831,0 0.19825,0 0.396491,0.014528 0.793,0.043697 1.434386,0.3495678 0.653054,0.3058704 0.653054,1.2671677 0,0.029169 0,0.072866 0,0.029169 0,0.058226 -0.01163,0.029169 -0.01163,0.058226 0,0.029169 0,0.058226 z m 16.617974,1.7478164 h 1.072872 q 0,0.1019233 0,0.2184869 0.01163,0.1165188 0.01163,0.2184756 0,0.1165189 0.01163,0.2330377 0.01163,0.1019233 0.01163,0.2184869 0,1.0632543 -0.513118,1.6895573 -0.50145,0.626302 -1.632626,0.713697 -0.3965,0.02917 -0.792991,0.02917 -0.384831,0.01453 -0.781331,0.01453 l -1.352745,0.01453 Q 31.412377,12.038745 31.062523,10.72788 30.712678,9.4024527 30.70101,7.8585387 q 0,-0.058226 0,-0.1019232 0,-0.058226 0,-0.1165189 0,-0.1019233 0,-0.1893515 0,-0.1019233 0,-0.2039136 V 5.7320528 q 0,-1.3836866 0.48979,-2.2430383 0.489791,-0.8739138 1.99414,-1.0341301 0.233236,-0.029169 0.466464,-0.043697 0.244895,-0.029169 0.478131,-0.043697 0.233227,-0.014528 0.466463,-0.014528 0.244896,0 0.478123,0 1.959162,0 2.565562,0.5534813 0.618068,0.5389081 0.711359,2.5343467 h -1.072873 q 0,-1.0923895 -0.268213,-1.6021735 -0.256554,-0.5097839 -1.469363,-0.5097839 -0.513118,0 -1.026226,0.014528 -0.513109,0.014528 -1.026227,0.058226 -1.084531,0.072866 -1.364404,0.6554381 -0.279881,0.5680434 -0.279881,1.6021735 v 0.1747783 l 0.01163,1.558476 v 0.509784 q 0,0.2330377 0,0.4952107 0.01163,0.247611 0.02335,0.509784 0.03499,0.4806487 0.10495,0.9176112 0.06997,0.436951 0.244895,0.757384 0.174923,0.30587 0.536436,0.436962 0.373173,0.131081 0.781331,0.160216 0.163264,0.01453 0.314859,0.02917 0.163264,0 0.314868,0 0.466464,0 0.921268,0 0.454804,-0.01453 0.909609,-0.05823 0.641386,-0.05823 0.99124,-0.30587 0.361504,-0.2476 0.396491,-0.9321732 0,-0.1310809 0,-0.262173 0,-0.145643 0,-0.2912972 -0.01163,-0.1310921 -0.01163,-0.262173 0,-0.1456542 0,-0.2767463 z m 1.854194,-0.2912971 q 0,-1.7332544 0.513109,-2.5343467 0.524777,-0.8010811 2.390631,-0.8010811 1.959153,0 2.542234,0.6845623 0.583082,0.6700002 0.583082,2.592606 0,1.674995 -0.361505,2.709125 -0.361513,1.03413 -2.460603,1.03413 -1.819217,0 -2.518916,-0.568043 -0.688032,-0.568044 -0.688032,-2.4760876 z m 1.049545,-0.014529 v 0.5680434 q 0,0.145643 0,0.3204325 0,0.1602162 0.02335,0.3204325 0.02335,0.4223897 0.104959,0.8010807 0.09329,0.378692 0.279882,0.582606 0.163263,0.145654 0.396491,0.203913 0.233236,0.05823 0.501449,0.07287 0.05834,0 0.104959,0 0.04662,0 0.10495,0 h 0.466464 q 0.897949,0 1.364412,-0.247611 0.478132,-0.247611 0.536436,-1.2089086 0.01163,-0.2039136 0.01163,-0.3932651 0.01163,-0.1893404 0.01163,-0.393254 0.02335,-0.1893515 0.02335,-0.3787031 0,-0.2039135 0,-0.3932539 0,-1.2526057 -0.233227,-1.791525 -0.233236,-0.5389081 -1.49269,-0.5389081 h -0.221577 q -1.317759,0 -1.655945,0.4078272 -0.326527,0.4078272 -0.326527,1.8497732 z M 47.799898,2.3966585 V 12.111645 H 46.762012 V 2.3966585 Z m 2.760948,0 V 12.111645 H 49.522961 V 2.3966585 Z m 6.37202,7.6467265 h 1.049545 q 0,1.500216 -0.804658,1.820649 -0.80465,0.320432 -2.09909,0.320432 -1.912508,0 -2.48393,-0.728259 -0.559754,-0.72826 -0.559754,-2.5780332 0,-1.7769629 0.431477,-2.7236982 0.443145,-0.9467353 2.472271,-0.9467353 1.90084,0 2.460603,0.6408649 0.571413,0.6408761 0.583081,2.5343466 v 0.509784 h -4.897888 q 0,1.1360872 0.233237,1.8206492 0.244895,0.684562 1.620967,0.684562 h 0.268213 q 0.151605,0 0.314868,0 0.174923,0 0.361505,-0.02917 0.221577,-0.01453 0.419818,-0.07287 0.209908,-0.05823 0.349854,-0.160216 0.151595,-0.101923 0.19825,-0.262173 0.04662,-0.174778 0.06997,-0.349568 0.01163,-0.05823 0.01163,-0.131081 0,-0.07287 0,-0.131092 z m 0.02335,-1.9371682 q 0,-1.267179 -0.303199,-1.6895682 -0.291541,-0.4223893 -1.632627,-0.4223893 -1.177831,0 -1.551003,0.4369625 -0.373173,0.4369513 -0.373173,1.674995 z m 8.083057,-2.7819577 v 7.2243369 q 0,1.573038 -0.734677,2.06826 -0.734686,0.509784 -2.239035,0.509784 -1.306099,0 -1.98248,-0.378703 -0.676373,-0.378692 -0.676373,-1.849773 l 0.944595,0.01453 q 0.04662,0.917612 0.396491,1.150649 0.349854,0.233049 1.201149,0.233049 1.014568,0 1.562663,-0.262173 0.559754,-0.262173 0.559754,-1.412822 v -1.34 q -0.279882,0.538908 -0.804649,0.713686 -0.513109,0.17479 -1.061213,0.189352 -0.09329,0.01453 -0.198241,0.01453 -0.0933,0 -0.186591,0 -1.644285,0 -2.145735,-0.873902 -0.50145,-0.873914 -0.50145,-2.3304334 0,-1.6167355 0.396491,-2.6800009 0.3965,-1.0778162 2.343985,-1.0778162 0.676381,0 1.247795,0.1893404 0.571422,0.1747894 0.944594,0.771957 l -0.03499,-0.8739138 z m -4.804588,3.3791252 v 0.247611 q 0,1.1506487 0.244895,1.7915137 0.244896,0.626303 1.620968,0.626303 0.804649,0 1.29444,-0.305859 0.501449,-0.320444 0.571422,-1.1797845 0.02335,-0.2913083 0.03499,-0.5826055 0.02335,-0.3058704 0.02335,-0.5971787 0,-1.1943463 -0.256554,-1.9080327 -0.244895,-0.7136975 -1.667613,-0.7136975 -1.142844,0 -1.504349,0.4369513 -0.361513,0.4223892 -0.361513,1.6313087 z m 11.192598,1.3400007 h 1.049545 q 0,1.500216 -0.80465,1.820649 -0.804649,0.320432 -2.099089,0.320432 -1.912508,0 -2.483931,-0.728259 -0.559763,-0.72826 -0.559763,-2.5780332 0,-1.7769629 0.431486,-2.7236982 0.443136,-0.9467353 2.472262,-0.9467353 1.900849,0 2.460603,0.6408649 0.571423,0.6408761 0.583082,2.5343466 v 0.509784 h -4.897879 q 0,1.1360872 0.233227,1.8206492 0.244895,0.684562 1.620967,0.684562 h 0.268223 q 0.151595,0 0.314859,0 0.174922,0 0.361513,-0.02917 0.221568,-0.01453 0.419818,-0.07287 0.209909,-0.05823 0.349845,-0.160216 0.151605,-0.101923 0.19825,-0.262173 0.04662,-0.174778 0.06997,-0.349568 0.01163,-0.05823 0.01163,-0.131081 0,-0.07287 0,-0.131092 z m 0.02335,-1.9371682 q 0,-1.267179 -0.303209,-1.6895682 -0.291541,-0.4223893 -1.632626,-0.4223893 -1.177822,0 -1.550995,0.4369625 -0.373172,0.4369513 -0.373172,1.674995 z"
     id="text1"
     aria-label="Firs   College" /><path
     d="m 43.339314,13.234705 v 3.828651 h 2.249604 v 0.441763 h -2.769565 v -4.270414 z m 3.115326,0 v 4.270414 h -0.504039 v -4.270414 z m 4.544224,0 v 4.270414 h -0.80646 l -2.488365,-3.860661 v 3.860661 h -0.482811 v -4.270414 h 0.80646 l 2.488365,3.899076 v -3.899076 z m 3.432776,2.823464 h 0.488127 q 0,0.04482 0,0.09601 0.0055,0.05119 0.0055,0.09601 0,0.05119 0.0055,0.10238 0.0055,0.04482 0.0055,0.09601 0,0.46738 -0.233444,0.742677 -0.228147,0.275307 -0.742792,0.313722 -0.1804,0.01285 -0.360791,0.01285 -0.175083,0.0066 -0.355483,0.0066 l -0.615455,0.0066 q -0.912577,-0.05767 -1.071748,-0.633837 -0.159171,-0.582625 -0.164478,-1.261281 0,-0.02559 0,-0.04482 0,-0.0256 0,-0.05119 0,-0.04482 0,-0.08327 0,-0.04482 0,-0.08964 v -0.665847 q 0,-0.608231 0.222839,-0.985974 0.22284,-0.384147 0.90727,-0.454572 0.106117,-0.01285 0.212234,-0.01922 0.111415,-0.01285 0.217532,-0.01922 0.106108,-0.0066 0.212225,-0.0066 0.111415,0 0.217532,0 0.891358,0 1.167251,0.243297 0.2812,0.236892 0.32364,1.114015 h -0.488118 q 0,-0.480178 -0.12203,-0.704262 -0.116722,-0.224084 -0.668518,-0.224084 -0.233445,0 -0.466898,0.0066 -0.233454,0.0066 -0.466899,0.02559 -0.493425,0.03197 -0.620762,0.288105 -0.127337,0.249701 -0.127337,0.704273 v 0.07679 l 0.0055,0.68506 v 0.224084 q 0,0.102491 0,0.21768 0.0055,0.108862 0.01065,0.224084 0.01593,0.211286 0.04779,0.40336 0.03186,0.192062 0.111415,0.332923 0.07956,0.134446 0.244059,0.192074 0.169785,0.05756 0.355483,0.07041 0.07428,0.0066 0.143258,0.01285 0.07428,0 0.14325,0 0.212225,0 0.419151,0 0.206918,-0.0066 0.413836,-0.02559 0.291815,-0.0256 0.450986,-0.134446 0.164478,-0.108861 0.18039,-0.409753 0,-0.05767 0,-0.115244 0,-0.06404 0,-0.128053 -0.0055,-0.05767 -0.0055,-0.115244 0,-0.06404 0,-0.121648 z m 4.05047,-1.651821 h -0.488127 q -0.02649,-0.473785 -0.185698,-0.627444 -0.159171,-0.160052 -0.668518,-0.160052 h -0.238752 q -0.08493,0 -0.196312,0.0066 -0.106108,0 -0.228146,0.0066 -0.137943,0.01285 -0.270587,0.03845 -0.132644,0.0256 -0.217532,0.07679 -0.106117,0.06404 -0.159171,0.172872 -0.0477,0.108862 -0.06363,0.224084 -0.0055,0.05119 -0.01065,0.10249 0,0.05119 0,0.09601 0,0.352136 0.116731,0.537806 0.116722,0.179275 0.541172,0.204882 0.143259,0.01285 0.28121,0.01922 0.143249,0 0.2812,0 0.657904,0.01285 1.124802,0.166468 0.466899,0.147254 0.466899,0.985973 0,0.486583 -0.148557,0.83872 -0.148566,0.345732 -0.753406,0.403349 -0.106117,0.0066 -0.212234,0.0066 -0.106108,0.0066 -0.206918,0.01285 -0.106117,0.0066 -0.212225,0.0066 -0.106117,0 -0.212234,0 -0.689737,0 -1.140714,-0.166467 -0.450986,-0.172872 -0.450986,-0.97957 0,-0.02559 0,-0.05119 0,-0.02559 0.0055,-0.05119 0,-0.02559 0.0055,-0.05119 0.0055,-0.0256 0.0055,-0.05119 h 0.477504 q 0,0.582625 0.164478,0.76189 0.169785,0.179265 0.779933,0.179265 h 0.419152 q 0.551786,0 0.76402,-0.128042 0.212225,-0.134457 0.212225,-0.678656 0,-0.428966 -0.132644,-0.569816 -0.127337,-0.140861 -0.557094,-0.160063 -0.100809,-0.0066 -0.201619,-0.0066 -0.0955,-0.0066 -0.196304,-0.0066 -0.695044,-0.0256 -1.209699,-0.18567 -0.509347,-0.160063 -0.509347,-1.011579 0,-0.774699 0.408538,-0.966772 0.413844,-0.192074 1.103582,-0.192074 h 0.122029 q 0.689738,0 1.140724,0.160063 0.450986,0.153659 0.450986,0.973165 z"
     id="text2"
     style="font-size:5.82831px;line-height:1;font-family:'Waukegan LDO Extended';-inkscape-font-specification:'Waukegan LDO Extended';letter-spacing:0px;fill:#f67605;stroke-width:2.14569;stroke-dasharray:0.872871, 0.436435, 0.218218, 0.436435"
     aria-label="LINCS" /><path
     id="path2"
     style="display:inline;opacity:1;fill:#007dc5;fill-opacity:1;stroke-width:3.117;stroke-dasharray:1.268, 0.634, 0.317, 0.634"
     d="M 24.021585,0 A 1.2511554,1.2511554 0 0 0 22.770499,1.25109 1.2511554,1.2511554 0 0 0 24.021585,2.50218 1.2511554,1.2511554 0 0 0 25.272671,1.25109 1.2511554,1.2511554 0 0 0 24.021585,0 Z m 7.003194,1.04438 c -6.581503,3.04271 -10.616412,2.64585 -13.328389,1.7198 0,0 0.529171,1.5875 4.911328,1.86862 1.074869,7.90442 4.679817,9.60768 4.679817,9.60768 0,0 -3.026172,-3.34037 -2.728515,-9.87227 0,0 4.398709,-1.02526 6.465759,-3.32383 z" /></svg>
